<svg width="16" height="16" viewBox="0 0 16 16" fill="none" xmlns="http://www.w3.org/2000/svg">
<g clip-path="url(#clip0_869_4278)">
<path d="M5 8.66667C4.40666 8.66667 3.82664 8.49072 3.33329 8.16108C2.83994 7.83143 2.45542 7.3629 2.22836 6.81472C2.0013 6.26654 1.94189 5.66334 2.05764 5.0814C2.1734 4.49945 2.45912 3.96491 2.87868 3.54535C3.29824 3.12579 3.83279 2.84007 4.41473 2.72431C4.99667 2.60856 5.59987 2.66797 6.14805 2.89503C6.69623 3.12209 7.16476 3.50661 7.49441 3.99996C7.82405 4.4933 8 5.07332 8 5.66667C7.99912 6.46205 7.68276 7.2246 7.12035 7.78701C6.55793 8.34943 5.79538 8.66579 5 8.66667ZM5 4.66667C4.80222 4.66667 4.60888 4.72532 4.44443 4.8352C4.27998 4.94508 4.15181 5.10126 4.07612 5.28398C4.00043 5.46671 3.98063 5.66778 4.01921 5.86176C4.0578 6.05574 4.15304 6.23392 4.29289 6.37378C4.43275 6.51363 4.61093 6.60887 4.80491 6.64745C4.99889 6.68604 5.19996 6.66624 5.38268 6.59055C5.56541 6.51486 5.72159 6.38669 5.83147 6.22224C5.94135 6.05779 6 5.86445 6 5.66667C6 5.40145 5.89464 5.1471 5.70711 4.95956C5.51957 4.77202 5.26522 4.66667 5 4.66667ZM10 15C10 13.6739 9.47322 12.4021 8.53553 11.4645C7.59785 10.5268 6.32608 10 5 10C3.67392 10 2.40215 10.5268 1.46447 11.4645C0.526784 12.4021 0 13.6739 0 15C0 15.2652 0.105357 15.5196 0.292893 15.7071C0.48043 15.8946 0.734784 16 1 16C1.26522 16 1.51957 15.8946 1.70711 15.7071C1.89464 15.5196 2 15.2652 2 15C2 14.2044 2.31607 13.4413 2.87868 12.8787C3.44129 12.3161 4.20435 12 5 12C5.79565 12 6.55871 12.3161 7.12132 12.8787C7.68393 13.4413 8 14.2044 8 15C8 15.2652 8.10536 15.5196 8.29289 15.7071C8.48043 15.8946 8.73478 16 9 16C9.26522 16 9.51957 15.8946 9.70711 15.7071C9.89464 15.5196 10 15.2652 10 15ZM16 12C16.0001 11.1149 15.7485 10.2481 15.2745 9.50059C14.8006 8.75311 14.1238 8.15582 13.3232 7.77842C12.5226 7.40102 11.6312 7.25906 10.753 7.36912C9.87483 7.47918 9.04603 7.83671 8.36333 8.4C8.26204 8.48361 8.17821 8.58635 8.11662 8.70236C8.05503 8.81837 8.0169 8.94537 8.00439 9.07611C7.99189 9.20686 8.00526 9.33878 8.04374 9.46436C8.08222 9.58994 8.14506 9.70671 8.22867 9.808C8.31228 9.90929 8.41502 9.99313 8.53102 10.0547C8.64703 10.1163 8.77403 10.1544 8.90478 10.1669C9.03552 10.1794 9.16745 10.1661 9.29303 10.1276C9.4186 10.0891 9.53537 10.0263 9.63667 9.94267C10.1129 9.54632 10.7137 9.33056 11.3333 9.33333C12.0406 9.33333 12.7189 9.61429 13.219 10.1144C13.719 10.6145 14 11.2928 14 12C14 12.2652 14.1054 12.5196 14.2929 12.7071C14.4804 12.8946 14.7348 13 15 13C15.2652 13 15.5196 12.8946 15.7071 12.7071C15.8946 12.5196 16 12.2652 16 12ZM11.6667 6C11.0733 6 10.4933 5.82405 9.99996 5.49441C9.50661 5.16477 9.12209 4.69623 8.89503 4.14805C8.66796 3.59987 8.60855 2.99667 8.72431 2.41473C8.84007 1.83279 9.12579 1.29824 9.54535 0.878681C9.9649 0.459123 10.4995 0.173401 11.0814 0.0576455C11.6633 -0.0581102 12.2665 0.00129986 12.8147 0.228363C13.3629 0.455426 13.8314 0.839943 14.1611 1.33329C14.4907 1.82664 14.6667 2.40666 14.6667 3C14.6658 3.79538 14.3494 4.55793 13.787 5.12035C13.2246 5.68277 12.462 5.99912 11.6667 6ZM11.6667 2C11.4689 2 11.2755 2.05865 11.1111 2.16853C10.9466 2.27841 10.8185 2.43459 10.7428 2.61732C10.6671 2.80004 10.6473 3.00111 10.6859 3.19509C10.7245 3.38907 10.8197 3.56726 10.9596 3.70711C11.0994 3.84696 11.2776 3.9422 11.4716 3.98079C11.6656 4.01937 11.8666 3.99957 12.0493 3.92388C12.2321 3.84819 12.3883 3.72002 12.4981 3.55557C12.608 3.39112 12.6667 3.19778 12.6667 3C12.6667 2.73478 12.5613 2.48043 12.3738 2.29289C12.1862 2.10536 11.9319 2 11.6667 2Z" fill="#46E696"/>
</g>
<defs>
<clipPath id="clip0_869_4278">
<rect width="16" height="16" fill="white"/>
</clipPath>
</defs>
</svg>
