<svg width="20" height="20" viewBox="0 0 20 20" fill="none" xmlns="http://www.w3.org/2000/svg">
<path d="M7.80463 8.90193C8.585 10.2742 9.726 11.4152 11.0982 12.1955L11.8353 11.1636C12.0804 10.8206 12.543 10.7146 12.913 10.9167C14.0853 11.5571 15.3809 11.9463 16.7324 12.0533C17.1658 12.0876 17.5 12.4493 17.5 12.884V16.603C17.5 17.0303 17.1768 17.3883 16.7518 17.4319C16.3102 17.4773 15.8647 17.5002 15.4167 17.5002C8.28299 17.5002 2.5 11.7172 2.5 4.58352C2.5 4.13541 2.52285 3.68994 2.56824 3.24832C2.61192 2.82331 2.96995 2.50018 3.39721 2.50018H7.11618C7.55092 2.50018 7.91261 2.83438 7.94692 3.26776C8.05389 4.61925 8.44308 5.91488 9.0835 7.08722C9.28558 7.45718 9.17958 7.9198 8.83658 8.16482L7.80463 8.90193ZM5.70354 8.35452L7.28683 7.22359C6.83789 6.25447 6.53023 5.22671 6.37273 4.16685H4.17422C4.16919 4.30545 4.16667 4.44435 4.16667 4.58352C4.16667 10.7967 9.2035 15.8335 15.4167 15.8335C15.5558 15.8335 15.6947 15.831 15.8333 15.8259V13.6274C14.7735 13.4699 13.7457 13.1623 12.7766 12.7133L11.6457 14.2967C11.1882 14.1189 10.7463 13.9098 10.3228 13.6719L10.2744 13.6443C8.64142 12.7158 7.28445 11.3588 6.35583 9.72577L6.32828 9.67735C6.09041 9.25385 5.88128 8.81202 5.70354 8.35452Z" fill="#102C24"/>
</svg>
