<svg width="88" height="121" viewBox="0 0 88 121" fill="none" xmlns="http://www.w3.org/2000/svg">
<path d="M16.0238 13.163C15.7968 11.3789 15.592 9.58921 15.3262 7.81061C15.2349 7.20111 15.3955 6.83542 15.9518 6.48635C18.1497 5.10391 20.4665 4.00127 23.0768 3.50537C23.8684 4.99032 24.602 6.50297 25.4656 7.94913C26.4012 9.51442 27.287 11.1296 28.7292 12.368C29.5568 13.08 30.2682 12.9802 30.7416 12.0272C32.0121 9.46455 32.6183 6.73845 32.9172 3.9431C33.1276 3.92647 33.3352 3.90985 33.5456 3.89322C33.6867 3.90708 33.8279 3.92093 33.9691 3.93479C36.8756 4.97093 39.7598 6.04585 42.3259 7.74411C42.7439 11.3651 43.6269 14.8973 44.7895 18.3576C45.3984 20.1722 46.9264 20.585 48.6038 19.4603C49.6972 18.7289 50.7573 17.9337 51.5794 16.9059C51.8286 16.5956 52.0555 16.2189 52.5594 16.2077C52.6507 16.3823 52.7033 16.5901 52.8362 16.7286C55.4492 19.4519 57.6277 22.4745 59.6982 25.5717C59.8892 25.8571 60.0913 26.1231 60.1078 26.4722C60.1078 26.6107 60.1078 26.7465 60.1078 26.8849C60.0967 27.0152 60.0857 27.1426 60.0774 27.2728C59.4823 30.1208 59.1612 32.9993 59.2387 35.8972C59.2718 37.1799 59.6649 38.3933 60.8746 39.23C61.7548 39.8395 62.7873 40.0666 63.7948 40.3493C65.0765 40.7093 66.4716 40.4794 67.7283 40.9892C68.0051 42.3772 68.6833 43.6377 69.1483 44.9675C70.2666 48.1646 71.3185 51.3755 72.0603 54.6723C71.1053 55.9411 70.0701 57.1629 69.2092 58.4844C67.864 60.5567 67.2937 62.7287 68.9379 64.9367C70.3856 66.8788 72.0409 68.6463 73.973 70.1756C74.0367 70.2337 74.1032 70.2919 74.1668 70.3529C74.2415 70.4277 74.3135 70.5025 74.3882 70.5773C74.4575 70.641 74.5239 70.7048 74.5931 70.7684C74.6678 70.8377 74.7426 70.907 74.8173 70.9762C75.2824 72.7465 74.9751 74.5611 75.1965 76.3564C75.537 79.1213 74.9723 81.9 75.036 84.6788C75.0249 84.7397 75.0166 84.8006 75.0166 84.8615C74.9474 84.8699 74.881 84.892 74.8201 84.9225C73.0485 84.9863 71.2853 85.0915 69.5884 85.6623C68.8107 85.9254 68.3511 86.3714 68.1297 87.1167C67.7394 88.4354 68.3096 89.6267 68.6861 90.8232C69.5746 93.6546 71.0195 96.2788 72.2652 98.9766C72.0409 100.866 71.061 102.515 70.369 104.257C69.7988 105.687 68.8355 106.947 68.3649 108.422C67.9581 108.848 67.6481 108.826 67.1498 108.422C65.5664 107.135 63.9333 105.892 62.0288 105.031C60.6116 104.387 59.856 104.889 59.5985 106.274C59.366 107.527 59.6649 108.723 59.6539 109.948C59.6373 111.682 59.9556 113.394 60.2767 115.095C60.6974 117.311 60.4178 117.345 58.6407 118.314C57.5585 118.907 56.4513 119.464 55.3578 120.035C54.7046 120.497 53.8631 120.379 53.149 120.661C52.8832 120.766 52.695 120.547 52.5676 120.326C52.3655 119.972 52.0943 119.641 51.9614 119.265C51.7262 118.586 51.3774 118.445 50.6161 118.639C48.3215 119.229 45.9935 119.708 43.685 120.257C42.968 120.425 42.2981 120.395 41.5979 120.181C38.9073 119.362 36.3717 118.24 33.9829 116.813C33.5815 116.571 33.4321 116.289 33.3546 115.851C32.8314 112.945 32.311 110.036 31.4391 107.199C31.2481 106.582 31.0294 106.324 30.2543 106.527C28.2668 107.041 26.2434 107.427 24.2505 107.92C23.6415 108.069 23.2595 107.964 22.8636 107.516C20.3309 104.648 18.0279 101.631 15.9463 98.4591C15.6667 98.0349 15.6058 97.6439 15.6833 97.1371C16.1096 94.2869 16.5912 91.4384 16.4971 88.5379C16.4141 85.9282 15.365 84.6926 12.6938 84.0415C11.4455 83.7368 10.1749 83.626 8.90434 83.4986C8.37842 83.4459 8.08777 83.3185 7.8857 82.8281C6.19719 78.6919 4.8353 74.4642 3.7004 70.1645C3.56477 69.652 3.77514 69.3472 4.06578 68.9898C5.21453 67.5797 6.32728 66.1502 7.17707 64.5461C8.15974 62.6927 8.085 60.9694 6.81723 59.2407C5.36677 57.2627 3.54262 55.6142 1.70187 53.988C1.0486 53.4118 0.733044 52.7911 0.685988 51.9877C0.453471 47.9678 0.43963 43.948 0.647235 39.9253C0.680451 39.2604 1.09012 39.0831 1.64097 38.9557C3.26582 38.5845 4.87683 38.1467 6.51552 37.8559C7.53139 37.6758 7.78328 37.141 7.75284 36.3071C7.70025 34.8748 7.22414 33.534 6.66499 32.2291C5.71831 30.0238 4.7052 27.8435 3.68656 25.666C3.50387 25.2781 3.37653 24.9346 3.52047 24.519C4.58064 21.4162 5.86225 18.4019 7.55076 15.5484C7.6781 15.3323 7.78052 15.0414 8.12652 15.011C8.20679 15.734 8.94586 15.8947 9.40259 16.2632C10.7977 17.3935 12.2454 18.4712 13.9283 19.2136C15.1463 19.7539 16.14 19.3771 16.1954 18.2551C16.2785 16.5624 16.4362 14.8502 16.0238 13.1658V13.163Z" fill="#DAFAEA"/>
<path d="M73.972 70.1672C72.0371 68.6379 70.3818 66.8705 68.9369 64.9284C67.2926 62.7204 67.8628 60.5511 69.2081 58.4761C70.0662 57.1517 71.1015 55.93 72.0564 54.6639C73.1747 54.5614 74.2211 54.2566 75.2896 53.8965C77.1524 53.2677 79.1621 53.1263 81.097 52.7108C82.0713 52.503 82.9432 51.816 84.0256 52.068C83.7349 52.8438 83.1121 53.4145 82.6277 54.0683C81.872 55.0878 81.1745 56.1351 80.6458 57.2764C79.9426 58.7946 79.9897 60.2491 80.9336 61.6842C82.3758 63.8811 84.3799 65.596 86.3036 67.3857C86.6607 67.7182 87.2503 67.926 87.1894 68.5521C86.1597 68.2972 85.2213 68.6269 84.2331 68.8623C82.3121 69.3195 80.3938 69.832 78.4562 70.1672C77.2217 70.3805 76.0591 70.821 74.8218 70.9651C74.747 70.8958 74.6723 70.8266 74.5975 70.7573C74.5284 70.6936 74.4619 70.6299 74.3927 70.5661C74.3179 70.4913 74.246 70.4165 74.1713 70.3417C74.1076 70.2836 74.0411 70.2254 73.9775 70.1644L73.972 70.1672Z" fill="#46E696"/>
<path d="M67.7271 40.9836C66.4704 40.4738 65.0753 40.7038 63.7937 40.3436C62.7861 40.0611 61.7536 39.8339 60.8734 39.2244C59.6637 38.3905 59.2735 37.1743 59.2375 35.8916C59.16 32.9909 59.481 30.1152 60.0762 27.2673C60.2727 27.1508 60.2949 27.0234 60.1067 26.8794C60.1067 26.7409 60.1067 26.6051 60.1067 26.4666C60.6021 26.4056 61.0284 26.1563 61.5072 26.0316C64.6684 25.2226 67.9735 24.9844 71.0571 23.8707C71.4695 23.7211 71.9429 23.5964 72.3802 23.8845C71.9788 26.9763 71.356 30.0487 71.5692 33.1876C71.7242 35.4732 72.8203 36.7503 75.1898 37.2878C76.1199 37.4984 77.0748 37.6148 78.0159 37.7727C78.3259 38.0026 78.3233 38.1716 77.9107 38.2769C76.7482 38.5761 75.5745 38.8891 74.4064 39.0941C72.8203 39.3712 71.2979 39.8616 69.7173 40.1497C69.0309 40.2743 68.1367 40.1885 67.7215 40.9808L67.7271 40.9836Z" fill="#46E696"/>
<path d="M67.73 40.9836C68.1452 40.1912 69.0393 40.2771 69.7258 40.1525C71.3063 39.8671 72.8288 39.374 74.4148 39.0969C75.583 38.8947 76.7566 38.5788 77.9192 38.2796C78.3289 38.1744 78.3316 38.0053 78.0244 37.7754C79.8319 37.8198 79.8458 37.817 80.4824 39.3906C82.0463 43.2525 83.2864 47.2087 84.3494 51.2176C84.4047 51.4308 84.5653 51.6608 84.3078 51.8603C84.211 51.9323 84.1113 52.0015 84.0144 52.0735L84.031 52.0708C82.9488 51.8187 82.0768 52.503 81.1024 52.7135C79.1676 53.1264 77.158 53.2704 75.2951 53.8993C74.2266 54.2595 73.1803 54.5641 72.062 54.6667C71.3202 51.3698 70.2683 48.1589 69.15 44.9619C68.685 43.6321 68.0068 42.3716 67.73 40.9836Z" fill="#90F0C0"/>
<path d="M74.821 70.9677C76.0611 70.8236 77.2237 70.3831 78.4556 70.1698C80.396 69.8345 82.3115 69.3221 84.2325 68.8649C85.2207 68.6294 86.159 68.2997 87.1888 68.5546C87.6815 72.8156 87.4904 77.0876 87.3687 81.3568C87.352 81.9718 87.1168 82.2932 86.4331 82.4261C84.8746 82.7309 83.3329 83.1076 81.7883 83.4761C81.2873 83.5953 80.7253 83.6147 80.3766 84.0662C79.7538 83.9416 79.1724 83.997 78.5441 84.1743C77.412 84.4929 76.2466 84.7589 75.037 84.6674C74.9734 81.8887 75.538 79.1099 75.1975 76.345C74.9761 74.5499 75.2834 72.7352 74.8184 70.9649L74.821 70.9677Z" fill="#90F0C0"/>
<path d="M75.0352 84.6703C76.2448 84.759 77.4102 84.4957 78.5423 84.1772C79.1707 83.9998 79.752 83.9416 80.3747 84.0691C79.9541 85.4792 80.5519 86.7619 80.9727 88.053C81.7698 90.5046 82.9684 92.8069 84.0618 95.1477C84.203 95.45 84.3248 95.7603 84.4577 96.0652C84.4078 96.2087 84.4521 96.3782 84.1891 96.4195C83.6134 96.5137 83.046 96.6607 82.4758 96.7854C80.981 97.1092 79.4641 97.3648 77.9998 97.7773C76.2559 98.2679 74.3376 98.215 72.7598 99.2428C72.5107 99.4034 72.4554 99.0321 72.2699 98.9711C71.0215 96.276 69.5793 93.649 68.6908 90.8176C68.3143 89.621 67.7441 88.4298 68.1345 87.111C68.3559 86.3658 68.8126 85.9197 69.5932 85.6565C71.2928 85.0859 73.0533 84.9806 74.8248 84.9168C74.93 85.0111 74.9853 84.9584 75.0213 84.8559C75.0213 84.7949 75.0269 84.734 75.0407 84.673L75.0352 84.6703Z" fill="#46E696"/>
<path d="M72.384 23.8873C71.9467 23.5991 71.4733 23.7238 71.0609 23.8734C67.9773 24.9872 64.6722 25.2255 61.5111 26.0343C61.0294 26.1563 60.6032 26.4084 60.1105 26.4693C60.0939 26.1203 59.8918 25.8543 59.7008 25.569C57.6303 22.4716 55.4519 19.4518 52.8387 16.7258C52.7059 16.5872 52.6505 16.3795 52.562 16.205C53.2401 15.8392 54.0097 15.7644 54.7377 15.5566C55.4214 15.3627 56.357 15.5456 56.7058 14.6674C56.9327 15.0691 57.2538 14.9333 57.6109 14.8475C59.6012 14.3736 61.6052 13.9442 63.5927 13.4511C64.293 13.2766 64.7747 13.3791 65.2535 13.9276C67.742 16.7701 70.0395 19.74 72.0574 22.8955C72.2484 23.1974 72.575 23.4717 72.3868 23.8901L72.384 23.8873Z" fill="#90F0C0"/>
<path d="M56.7044 14.6647C56.3557 15.5429 55.4173 15.3601 54.7363 15.554C54.0083 15.7618 53.2388 15.8394 52.5607 16.2023C52.0568 16.2133 51.8299 16.5901 51.5808 16.9004C50.7559 17.9283 49.6957 18.7233 48.6051 19.4547C46.9276 20.5795 45.3997 20.164 44.7907 18.3521C43.6309 14.8891 42.7479 11.3568 42.3271 7.73864C44.4668 7.23442 46.5845 6.63047 48.7491 6.25646C50.6756 5.92124 52.5136 5.32283 54.4014 4.87402C54.9522 6.07638 54.9274 7.3951 55.2346 8.64456C55.7301 10.6503 56.2145 12.6589 56.7044 14.6647Z" fill="#46E696"/>
<path d="M55.3613 120.029C56.4575 119.456 57.562 118.899 58.6443 118.309C60.4214 117.339 60.6982 117.306 60.2802 115.09C59.9591 113.389 59.6408 111.676 59.6574 109.942C59.6685 108.72 59.3695 107.524 59.602 106.268C59.8595 104.884 60.6151 104.385 62.0324 105.024C63.9368 105.886 65.5672 107.13 67.1533 108.415C67.6516 108.82 67.9616 108.842 68.3684 108.415C68.8612 108.684 69.3373 108.674 69.866 108.458C70.5552 108.175 71.2888 108.069 72.0389 108.25C72.2216 109.746 72.3573 111.247 72.6008 112.735C72.8776 114.433 72.9108 114.414 71.4216 115.314C69.3982 116.536 67.228 117.419 64.8918 117.938C61.7168 118.639 58.5391 119.334 55.3613 120.029Z" fill="#90F0C0"/>
<path d="M72.0382 108.247C71.288 108.066 70.5517 108.169 69.8652 108.455C69.3365 108.673 68.8604 108.682 68.3677 108.412C68.8355 106.939 69.7988 105.679 70.369 104.249C71.0638 102.509 72.0437 100.861 72.2651 98.9684C72.4506 99.0294 72.5087 99.4007 72.7551 99.2401C74.3329 98.2096 76.2512 98.2643 77.995 97.7746C79.4621 97.3612 80.9789 97.1065 82.471 96.7827C83.0412 96.658 83.6087 96.5109 84.1844 96.4168C84.4473 96.3728 84.403 96.2033 84.4529 96.0625C84.7491 96.3253 84.5996 96.6105 84.4999 96.8966C83.4703 99.8769 82.2661 102.789 80.6524 105.542C80.3146 106.116 79.9022 106.407 79.2213 106.557C76.8158 107.086 74.427 107.679 72.0326 108.249L72.0382 108.247Z" fill="#90F0C0"/>
<path d="M32.9204 3.93755C32.6188 6.73291 32.0153 9.46177 30.7448 12.0217C30.2714 12.9775 29.56 13.0744 28.7324 12.3624C27.2903 11.124 26.4017 9.50887 25.4689 7.94358C24.6052 6.49743 23.8717 4.98478 23.0801 3.49983C26.9913 2.57727 30.9081 1.65749 34.8194 0.729407C35.1599 0.649064 35.3647 0.768192 35.5003 1.05078C35.7162 1.5079 35.9349 1.96224 36.1508 2.41936C36.0761 2.9402 35.7799 3.21725 35.2152 3.32807C34.7585 3.41671 34.2187 3.43334 33.9696 3.93201C33.8284 3.91816 33.6873 3.90431 33.5461 3.89046C33.3136 3.65498 33.1032 3.64389 32.9178 3.94033L32.9204 3.93755Z" fill="#46E696"/>
<path d="M33.9736 3.92984C34.2227 3.42832 34.7625 3.41447 35.2193 3.3258C35.7839 3.21497 36.0801 2.93788 36.1549 2.41697C36.4261 2.96005 36.8801 2.80489 37.3313 2.6996C39.781 2.13713 42.2335 1.59405 44.6777 1.01218C45.1151 0.906887 45.486 0.91797 45.915 1.03711C48.9626 1.8933 51.8469 3.05703 54.4046 4.87191C52.5168 5.32078 50.6789 5.91927 48.7523 6.25454C46.5877 6.63137 44.4701 7.23264 42.3304 7.73692C39.7644 6.04118 36.8801 4.96334 33.9736 3.92707V3.92984Z" fill="#90F0C0"/>
<path d="M16.0227 13.1631C16.4379 14.8477 16.2801 16.5573 16.1944 18.2531C16.1391 19.3752 15.1453 19.7521 13.9273 19.2118C12.2471 18.4692 10.7967 17.3886 9.40157 16.2609C8.94484 15.8924 8.20577 15.7289 8.12549 15.0085C10.7579 14.3933 13.3903 13.7782 16.02 13.1631H16.0227Z" fill="#46E696"/>
<path d="M32.9189 3.93808C33.1044 3.64161 33.3148 3.65268 33.5473 3.8882C33.3369 3.90483 33.1293 3.92145 32.9189 3.93808Z" fill="#90F0C0"/>
<path d="M60.108 26.8821C60.2963 27.0262 60.2742 27.1537 60.0776 27.27C60.0887 27.1398 60.0998 27.0123 60.108 26.8821Z" fill="#90F0C0"/>
<path d="M73.9741 70.1672C74.0378 70.2254 74.1043 70.2864 74.168 70.3445C74.1043 70.2864 74.0378 70.2281 73.9741 70.1672Z" fill="#90F0C0"/>
<path d="M75.0183 84.8533C74.9823 84.9558 74.9269 85.0085 74.8218 84.9143C74.8827 84.8838 74.9491 84.8616 75.0183 84.8533Z" fill="#90F0C0"/>
<path d="M34.9109 31.0321L35.556 30.9047L35.5726 30.9214C43.229 29.8049 51.5525 34.3373 57.1661 43.7512C65.4703 57.6697 64.7146 76.9852 55.4749 86.895C52.5351 90.0505 49.089 91.8707 45.4877 92.4384L37.0811 94.0734C36.987 93.738 36.8652 93.3308 36.7268 92.8626C36.5856 92.3801 36.4251 91.8375 36.2535 91.2474C31.5755 89.3135 27.1355 85.3851 23.7087 79.6392C15.4045 65.7206 16.1602 46.4053 25.3999 36.4955C26.0255 35.825 26.676 35.2127 27.3431 34.6614C27.0082 33.822 26.712 33.0823 26.5293 32.6861L34.6812 31.0792C34.7559 31.0654 34.8307 31.0488 34.9055 31.0349L34.9109 31.0321Z" fill="#90F0C0"/>
<path d="M37.0777 94.0806C49.1603 92.025 56.6193 76.6084 53.7379 59.6478C50.8565 42.6872 38.7257 30.6049 26.6431 32.6611C14.5605 34.7173 7.10147 50.1335 9.98288 67.0941C12.8643 84.0546 24.9951 96.1371 37.0777 94.0806Z" fill="#DAFAEA"/>
<path d="M33.8523 80.9347C40.2214 79.8061 43.9765 70.9315 42.2397 61.1128C40.5028 51.2941 33.9315 44.2494 27.5625 45.378C21.1934 46.5066 17.4382 55.3811 19.1751 65.1999C20.912 75.0186 27.4832 82.0633 33.8523 80.9347Z" fill="#90F0C0"/>
<path d="M32.094 45.9011C31.3384 46.2557 30.6076 46.7433 29.9184 47.3666C24.6701 52.1069 23.6653 62.9807 27.6707 71.6522C29.719 76.0849 32.678 79.0824 35.7839 80.3236C36.5395 79.969 37.2703 79.4814 37.9595 78.858C43.2078 74.1178 44.2126 63.244 40.2072 54.5725C38.1589 50.1398 35.1998 47.1422 32.094 45.9011Z" fill="#46E696"/>
<path d="M29.4833 62.3101C29.5856 62.432 29.6798 62.5373 29.7683 62.6564C30.4022 63.5124 31.0527 64.363 31.6893 65.2717C31.9579 65.6568 32.0742 65.6152 32.2457 65.2301C33.5661 62.2492 34.9668 59.1684 36.4034 55.9132C36.6303 55.4007 36.7853 55.3508 37.112 55.8024C37.494 56.3315 37.3611 55.0765 37.7929 55.5198C38.1251 55.8634 38.6427 57.8359 38.4518 58.2348C36.4698 62.4209 34.6069 66.3854 32.8547 70.1421C32.6997 70.4745 32.6028 70.5549 32.3316 70.1671C31.1081 68.4217 29.3033 65.2218 28.1186 63.6067C27.8723 63.2687 27.8639 63.0775 28.0189 62.7506C28.2708 62.2215 29.0929 63.1579 29.3338 62.5927C29.3753 62.4957 29.4252 62.4126 29.4833 62.3046V62.3101Z" fill="#90F0C0"/>
<path d="M28.9319 60.5646C29.0343 60.6866 29.1284 60.7918 29.2171 60.911C29.8509 61.7671 30.5014 62.6176 31.1381 63.5263C31.4065 63.9113 31.5228 63.8698 31.6945 63.4847C33.0147 60.5037 34.4154 57.423 35.852 54.1678C36.0791 53.6552 36.2341 53.6053 36.5607 54.0569C36.9427 54.5861 37.3607 55.0765 37.7925 55.5197C38.1246 55.8633 38.0914 56.0904 37.9004 56.4921C35.9185 60.6783 34.0556 64.6427 32.3034 68.3995C32.1484 68.7319 32.0515 68.8122 31.7802 68.4244C30.5567 66.679 29.3499 65.0001 28.1679 63.3849C27.9215 63.047 27.9133 62.8558 28.0683 62.5289C28.3202 61.9997 28.5416 61.4152 28.7825 60.85C28.824 60.7531 28.8738 60.6699 28.9319 60.562V60.5646Z" fill="#DAFAEA"/>
</svg>
