<svg width="20" height="20" viewBox="0 0 20 20" fill="none" xmlns="http://www.w3.org/2000/svg">
<path d="M10 17.4164L14.1248 13.2916C16.4028 11.0136 16.4028 7.32008 14.1248 5.04202C11.8468 2.76396 8.15327 2.76396 5.87521 5.04202C3.59715 7.32008 3.59715 11.0136 5.87521 13.2916L10 17.4164ZM10 19.7734L4.6967 14.4701C1.76777 11.5411 1.76777 6.79244 4.6967 3.86351C7.62563 0.934576 12.3743 0.934576 15.3033 3.86351C18.2323 6.79244 18.2323 11.5411 15.3033 14.4701L10 19.7734ZM10 10.8335C10.9205 10.8335 11.6667 10.0873 11.6667 9.16681C11.6667 8.24633 10.9205 7.50014 10 7.50014C9.0795 7.50014 8.33333 8.24633 8.33333 9.16681C8.33333 10.0873 9.0795 10.8335 10 10.8335ZM10 12.5001C8.15905 12.5001 6.66667 11.0077 6.66667 9.16681C6.66667 7.32586 8.15905 5.83348 10 5.83348C11.8409 5.83348 13.3333 7.32586 13.3333 9.16681C13.3333 11.0077 11.8409 12.5001 10 12.5001Z" fill="#102C24"/>
</svg>
