<svg width="1440" height="355" viewBox="0 0 1440 355" fill="none" xmlns="http://www.w3.org/2000/svg">
<g opacity="0.06" clip-path="url(#clip0_1294_2175)">
<circle cx="2.5" cy="2.5" r="2.5" fill="#F3F1EF"/>
<circle cx="47.5" cy="2.5" r="2.5" fill="#F3F1EF"/>
<circle cx="92.5" cy="2.5" r="2.5" fill="#F3F1EF"/>
<circle cx="137.5" cy="2.5" r="2.5" fill="#F3F1EF"/>
<circle cx="182.5" cy="2.5" r="2.5" fill="#F3F1EF"/>
<circle cx="227.5" cy="2.5" r="2.5" fill="#F3F1EF"/>
<circle cx="272.5" cy="2.5" r="2.5" fill="#F3F1EF"/>
<circle cx="317.5" cy="2.5" r="2.5" fill="#F3F1EF"/>
<circle cx="362.5" cy="2.5" r="2.5" fill="#F3F1EF"/>
<circle cx="407.5" cy="2.5" r="2.5" fill="#F3F1EF"/>
<circle cx="452.5" cy="2.5" r="2.5" fill="#F3F1EF"/>
<circle cx="497.5" cy="2.5" r="2.5" fill="#F3F1EF"/>
<circle cx="542.5" cy="2.5" r="2.5" fill="#F3F1EF"/>
<circle cx="587.5" cy="2.5" r="2.5" fill="#F3F1EF"/>
<circle cx="632.5" cy="2.5" r="2.5" fill="#F3F1EF"/>
<circle cx="677.5" cy="2.5" r="2.5" fill="#F3F1EF"/>
<circle cx="722.5" cy="2.5" r="2.5" fill="#F3F1EF"/>
<circle cx="767.5" cy="2.5" r="2.5" fill="#F3F1EF"/>
<circle cx="812.5" cy="2.5" r="2.5" fill="#F3F1EF"/>
<circle cx="857.5" cy="2.5" r="2.5" fill="#F3F1EF"/>
<circle cx="902.5" cy="2.5" r="2.5" fill="#F3F1EF"/>
<circle cx="947.5" cy="2.5" r="2.5" fill="#F3F1EF"/>
<circle cx="992.5" cy="2.5" r="2.5" fill="#F3F1EF"/>
<circle cx="1037.5" cy="2.5" r="2.5" fill="#F3F1EF"/>
<circle cx="1082.5" cy="2.5" r="2.5" fill="#F3F1EF"/>
<circle cx="1127.5" cy="2.5" r="2.5" fill="#F3F1EF"/>
<circle cx="1172.5" cy="2.5" r="2.5" fill="#F3F1EF"/>
<circle cx="1217.5" cy="2.5" r="2.5" fill="#F3F1EF"/>
<circle cx="1262.5" cy="2.5" r="2.5" fill="#F3F1EF"/>
<circle cx="1307.5" cy="2.5" r="2.5" fill="#F3F1EF"/>
<circle cx="1352.5" cy="2.5" r="2.5" fill="#F3F1EF"/>
<circle cx="1397.5" cy="2.5" r="2.5" fill="#F3F1EF"/>
<circle cx="2.5" cy="47.5" r="2.5" fill="#F3F1EF"/>
<circle cx="47.5" cy="47.5" r="2.5" fill="#F3F1EF"/>
<circle cx="92.5" cy="47.5" r="2.5" fill="#F3F1EF"/>
<circle cx="137.5" cy="47.5" r="2.5" fill="#F3F1EF"/>
<circle cx="182.5" cy="47.5" r="2.5" fill="#F3F1EF"/>
<circle cx="227.5" cy="47.5" r="2.5" fill="#F3F1EF"/>
<circle cx="272.5" cy="47.5" r="2.5" fill="#F3F1EF"/>
<circle cx="317.5" cy="47.5" r="2.5" fill="#F3F1EF"/>
<circle cx="362.5" cy="47.5" r="2.5" fill="#F3F1EF"/>
<circle cx="407.5" cy="47.5" r="2.5" fill="#F3F1EF"/>
<circle cx="452.5" cy="47.5" r="2.5" fill="#F3F1EF"/>
<circle cx="497.5" cy="47.5" r="2.5" fill="#F3F1EF"/>
<circle cx="542.5" cy="47.5" r="2.5" fill="#F3F1EF"/>
<circle cx="587.5" cy="47.5" r="2.5" fill="#F3F1EF"/>
<circle cx="632.5" cy="47.5" r="2.5" fill="#F3F1EF"/>
<circle cx="677.5" cy="47.5" r="2.5" fill="#F3F1EF"/>
<circle cx="722.5" cy="47.5" r="2.5" fill="#F3F1EF"/>
<circle cx="767.5" cy="47.5" r="2.5" fill="#F3F1EF"/>
<circle cx="812.5" cy="47.5" r="2.5" fill="#F3F1EF"/>
<circle cx="857.5" cy="47.5" r="2.5" fill="#F3F1EF"/>
<circle cx="902.5" cy="47.5" r="2.5" fill="#F3F1EF"/>
<circle cx="947.5" cy="47.5" r="2.5" fill="#F3F1EF"/>
<circle cx="992.5" cy="47.5" r="2.5" fill="#F3F1EF"/>
<circle cx="1037.5" cy="47.5" r="2.5" fill="#F3F1EF"/>
<circle cx="1082.5" cy="47.5" r="2.5" fill="#F3F1EF"/>
<circle cx="1127.5" cy="47.5" r="2.5" fill="#F3F1EF"/>
<circle cx="1172.5" cy="47.5" r="2.5" fill="#F3F1EF"/>
<circle cx="1217.5" cy="47.5" r="2.5" fill="#F3F1EF"/>
<circle cx="1262.5" cy="47.5" r="2.5" fill="#F3F1EF"/>
<circle cx="1307.5" cy="47.5" r="2.5" fill="#F3F1EF"/>
<circle cx="1352.5" cy="47.5" r="2.5" fill="#F3F1EF"/>
<circle cx="1397.5" cy="47.5" r="2.5" fill="#F3F1EF"/>
<circle cx="2.5" cy="92.5" r="2.5" fill="#F3F1EF"/>
<circle cx="47.5" cy="92.5" r="2.5" fill="#F3F1EF"/>
<circle cx="92.5" cy="92.5" r="2.5" fill="#F3F1EF"/>
<circle cx="137.5" cy="92.5" r="2.5" fill="#F3F1EF"/>
<circle cx="182.5" cy="92.5" r="2.5" fill="#F3F1EF"/>
<circle cx="227.5" cy="92.5" r="2.5" fill="#F3F1EF"/>
<circle cx="272.5" cy="92.5" r="2.5" fill="#F3F1EF"/>
<circle cx="317.5" cy="92.5" r="2.5" fill="#F3F1EF"/>
<circle cx="362.5" cy="92.5" r="2.5" fill="#F3F1EF"/>
<circle cx="407.5" cy="92.5" r="2.5" fill="#F3F1EF"/>
<circle cx="452.5" cy="92.5" r="2.5" fill="#F3F1EF"/>
<circle cx="497.5" cy="92.5" r="2.5" fill="#F3F1EF"/>
<circle cx="542.5" cy="92.5" r="2.5" fill="#F3F1EF"/>
<circle cx="587.5" cy="92.5" r="2.5" fill="#F3F1EF"/>
<circle cx="632.5" cy="92.5" r="2.5" fill="#F3F1EF"/>
<circle cx="677.5" cy="92.5" r="2.5" fill="#F3F1EF"/>
<circle cx="722.5" cy="92.5" r="2.5" fill="#F3F1EF"/>
<circle cx="767.5" cy="92.5" r="2.5" fill="#F3F1EF"/>
<circle cx="812.5" cy="92.5" r="2.5" fill="#F3F1EF"/>
<circle cx="857.5" cy="92.5" r="2.5" fill="#F3F1EF"/>
<circle cx="902.5" cy="92.5" r="2.5" fill="#F3F1EF"/>
<circle cx="947.5" cy="92.5" r="2.5" fill="#F3F1EF"/>
<circle cx="992.5" cy="92.5" r="2.5" fill="#F3F1EF"/>
<circle cx="1037.5" cy="92.5" r="2.5" fill="#F3F1EF"/>
<circle cx="1082.5" cy="92.5" r="2.5" fill="#F3F1EF"/>
<circle cx="1127.5" cy="92.5" r="2.5" fill="#F3F1EF"/>
<circle cx="1172.5" cy="92.5" r="2.5" fill="#F3F1EF"/>
<circle cx="1217.5" cy="92.5" r="2.5" fill="#F3F1EF"/>
<circle cx="1262.5" cy="92.5" r="2.5" fill="#F3F1EF"/>
<circle cx="1307.5" cy="92.5" r="2.5" fill="#F3F1EF"/>
<circle cx="1352.5" cy="92.5" r="2.5" fill="#F3F1EF"/>
<circle cx="1397.5" cy="92.5" r="2.5" fill="#F3F1EF"/>
<circle cx="2.5" cy="137.5" r="2.5" fill="#F3F1EF"/>
<circle cx="47.5" cy="137.5" r="2.5" fill="#F3F1EF"/>
<circle cx="92.5" cy="137.5" r="2.5" fill="#F3F1EF"/>
<circle cx="137.5" cy="137.5" r="2.5" fill="#F3F1EF"/>
<circle cx="182.5" cy="137.5" r="2.5" fill="#F3F1EF"/>
<circle cx="227.5" cy="137.5" r="2.5" fill="#F3F1EF"/>
<circle cx="272.5" cy="137.5" r="2.5" fill="#F3F1EF"/>
<circle cx="317.5" cy="137.5" r="2.5" fill="#F3F1EF"/>
<circle cx="362.5" cy="137.5" r="2.5" fill="#F3F1EF"/>
<circle cx="407.5" cy="137.5" r="2.5" fill="#F3F1EF"/>
<circle cx="452.5" cy="137.5" r="2.5" fill="#F3F1EF"/>
<circle cx="497.5" cy="137.5" r="2.5" fill="#F3F1EF"/>
<circle cx="542.5" cy="137.5" r="2.5" fill="#F3F1EF"/>
<circle cx="587.5" cy="137.5" r="2.5" fill="#F3F1EF"/>
<circle cx="632.5" cy="137.5" r="2.5" fill="#F3F1EF"/>
<circle cx="677.5" cy="137.5" r="2.5" fill="#F3F1EF"/>
<circle cx="722.5" cy="137.5" r="2.5" fill="#F3F1EF"/>
<circle cx="767.5" cy="137.5" r="2.5" fill="#F3F1EF"/>
<circle cx="812.5" cy="137.5" r="2.5" fill="#F3F1EF"/>
<circle cx="857.5" cy="137.5" r="2.5" fill="#F3F1EF"/>
<circle cx="902.5" cy="137.5" r="2.5" fill="#F3F1EF"/>
<circle cx="947.5" cy="137.5" r="2.5" fill="#F3F1EF"/>
<circle cx="992.5" cy="137.5" r="2.5" fill="#F3F1EF"/>
<circle cx="1037.5" cy="137.5" r="2.5" fill="#F3F1EF"/>
<circle cx="1082.5" cy="137.5" r="2.5" fill="#F3F1EF"/>
<circle cx="1127.5" cy="137.5" r="2.5" fill="#F3F1EF"/>
<circle cx="1172.5" cy="137.5" r="2.5" fill="#F3F1EF"/>
<circle cx="1217.5" cy="137.5" r="2.5" fill="#F3F1EF"/>
<circle cx="1262.5" cy="137.5" r="2.5" fill="#F3F1EF"/>
<circle cx="1307.5" cy="137.5" r="2.5" fill="#F3F1EF"/>
<circle cx="1352.5" cy="137.5" r="2.5" fill="#F3F1EF"/>
<circle cx="1397.5" cy="137.5" r="2.5" fill="#F3F1EF"/>
<circle cx="2.5" cy="182.5" r="2.5" fill="#F3F1EF"/>
<circle cx="47.5" cy="182.5" r="2.5" fill="#F3F1EF"/>
<circle cx="92.5" cy="182.5" r="2.5" fill="#F3F1EF"/>
<circle cx="137.5" cy="182.5" r="2.5" fill="#F3F1EF"/>
<circle cx="182.5" cy="182.5" r="2.5" fill="#F3F1EF"/>
<circle cx="227.5" cy="182.5" r="2.5" fill="#F3F1EF"/>
<circle cx="272.5" cy="182.5" r="2.5" fill="#F3F1EF"/>
<circle cx="317.5" cy="182.5" r="2.5" fill="#F3F1EF"/>
<circle cx="362.5" cy="182.5" r="2.5" fill="#F3F1EF"/>
<circle cx="407.5" cy="182.5" r="2.5" fill="#F3F1EF"/>
<circle cx="452.5" cy="182.5" r="2.5" fill="#F3F1EF"/>
<circle cx="497.5" cy="182.5" r="2.5" fill="#F3F1EF"/>
<circle cx="542.5" cy="182.5" r="2.5" fill="#F3F1EF"/>
<circle cx="587.5" cy="182.5" r="2.5" fill="#F3F1EF"/>
<circle cx="632.5" cy="182.5" r="2.5" fill="#F3F1EF"/>
<circle cx="677.5" cy="182.5" r="2.5" fill="#F3F1EF"/>
<circle cx="722.5" cy="182.5" r="2.5" fill="#F3F1EF"/>
<circle cx="767.5" cy="182.5" r="2.5" fill="#F3F1EF"/>
<circle cx="812.5" cy="182.5" r="2.5" fill="#F3F1EF"/>
<circle cx="857.5" cy="182.5" r="2.5" fill="#F3F1EF"/>
<circle cx="902.5" cy="182.5" r="2.5" fill="#F3F1EF"/>
<circle cx="947.5" cy="182.5" r="2.5" fill="#F3F1EF"/>
<circle cx="992.5" cy="182.5" r="2.5" fill="#F3F1EF"/>
<circle cx="1037.5" cy="182.5" r="2.5" fill="#F3F1EF"/>
<circle cx="1082.5" cy="182.5" r="2.5" fill="#F3F1EF"/>
<circle cx="1127.5" cy="182.5" r="2.5" fill="#F3F1EF"/>
<circle cx="1172.5" cy="182.5" r="2.5" fill="#F3F1EF"/>
<circle cx="1217.5" cy="182.5" r="2.5" fill="#F3F1EF"/>
<circle cx="1262.5" cy="182.5" r="2.5" fill="#F3F1EF"/>
<circle cx="1307.5" cy="182.5" r="2.5" fill="#F3F1EF"/>
<circle cx="1352.5" cy="182.5" r="2.5" fill="#F3F1EF"/>
<circle cx="1397.5" cy="182.5" r="2.5" fill="#F3F1EF"/>
<circle cx="2.5" cy="227.5" r="2.5" fill="#F3F1EF"/>
<circle cx="47.5" cy="227.5" r="2.5" fill="#F3F1EF"/>
<circle cx="92.5" cy="227.5" r="2.5" fill="#F3F1EF"/>
<circle cx="137.5" cy="227.5" r="2.5" fill="#F3F1EF"/>
<circle cx="182.5" cy="227.5" r="2.5" fill="#F3F1EF"/>
<circle cx="227.5" cy="227.5" r="2.5" fill="#F3F1EF"/>
<circle cx="272.5" cy="227.5" r="2.5" fill="#F3F1EF"/>
<circle cx="317.5" cy="227.5" r="2.5" fill="#F3F1EF"/>
<circle cx="362.5" cy="227.5" r="2.5" fill="#F3F1EF"/>
<circle cx="407.5" cy="227.5" r="2.5" fill="#F3F1EF"/>
<circle cx="452.5" cy="227.5" r="2.5" fill="#F3F1EF"/>
<circle cx="497.5" cy="227.5" r="2.5" fill="#F3F1EF"/>
<circle cx="542.5" cy="227.5" r="2.5" fill="#F3F1EF"/>
<circle cx="587.5" cy="227.5" r="2.5" fill="#F3F1EF"/>
<circle cx="632.5" cy="227.5" r="2.5" fill="#F3F1EF"/>
<circle cx="677.5" cy="227.5" r="2.5" fill="#F3F1EF"/>
<circle cx="722.5" cy="227.5" r="2.5" fill="#F3F1EF"/>
<circle cx="767.5" cy="227.5" r="2.5" fill="#F3F1EF"/>
<circle cx="812.5" cy="227.5" r="2.5" fill="#F3F1EF"/>
<circle cx="857.5" cy="227.5" r="2.5" fill="#F3F1EF"/>
<circle cx="902.5" cy="227.5" r="2.5" fill="#F3F1EF"/>
<circle cx="947.5" cy="227.5" r="2.5" fill="#F3F1EF"/>
<circle cx="992.5" cy="227.5" r="2.5" fill="#F3F1EF"/>
<circle cx="1037.5" cy="227.5" r="2.5" fill="#F3F1EF"/>
<circle cx="1082.5" cy="227.5" r="2.5" fill="#F3F1EF"/>
<circle cx="1127.5" cy="227.5" r="2.5" fill="#F3F1EF"/>
<circle cx="1172.5" cy="227.5" r="2.5" fill="#F3F1EF"/>
<circle cx="1217.5" cy="227.5" r="2.5" fill="#F3F1EF"/>
<circle cx="1262.5" cy="227.5" r="2.5" fill="#F3F1EF"/>
<circle cx="1307.5" cy="227.5" r="2.5" fill="#F3F1EF"/>
<circle cx="1352.5" cy="227.5" r="2.5" fill="#F3F1EF"/>
<circle cx="1397.5" cy="227.5" r="2.5" fill="#F3F1EF"/>
<circle cx="2.5" cy="272.5" r="2.5" fill="#F3F1EF"/>
<circle cx="47.5" cy="272.5" r="2.5" fill="#F3F1EF"/>
<circle cx="92.5" cy="272.5" r="2.5" fill="#F3F1EF"/>
<circle cx="137.5" cy="272.5" r="2.5" fill="#F3F1EF"/>
<circle cx="182.5" cy="272.5" r="2.5" fill="#F3F1EF"/>
<circle cx="227.5" cy="272.5" r="2.5" fill="#F3F1EF"/>
<circle cx="272.5" cy="272.5" r="2.5" fill="#F3F1EF"/>
<circle cx="317.5" cy="272.5" r="2.5" fill="#F3F1EF"/>
<circle cx="362.5" cy="272.5" r="2.5" fill="#F3F1EF"/>
<circle cx="407.5" cy="272.5" r="2.5" fill="#F3F1EF"/>
<circle cx="452.5" cy="272.5" r="2.5" fill="#F3F1EF"/>
<circle cx="497.5" cy="272.5" r="2.5" fill="#F3F1EF"/>
<circle cx="542.5" cy="272.5" r="2.5" fill="#F3F1EF"/>
<circle cx="587.5" cy="272.5" r="2.5" fill="#F3F1EF"/>
<circle cx="632.5" cy="272.5" r="2.5" fill="#F3F1EF"/>
<circle cx="677.5" cy="272.5" r="2.5" fill="#F3F1EF"/>
<circle cx="722.5" cy="272.5" r="2.5" fill="#F3F1EF"/>
<circle cx="767.5" cy="272.5" r="2.5" fill="#F3F1EF"/>
<circle cx="812.5" cy="272.5" r="2.5" fill="#F3F1EF"/>
<circle cx="857.5" cy="272.5" r="2.5" fill="#F3F1EF"/>
<circle cx="902.5" cy="272.5" r="2.5" fill="#F3F1EF"/>
<circle cx="947.5" cy="272.5" r="2.5" fill="#F3F1EF"/>
<circle cx="992.5" cy="272.5" r="2.5" fill="#F3F1EF"/>
<circle cx="1037.5" cy="272.5" r="2.5" fill="#F3F1EF"/>
<circle cx="1082.5" cy="272.5" r="2.5" fill="#F3F1EF"/>
<circle cx="1127.5" cy="272.5" r="2.5" fill="#F3F1EF"/>
<circle cx="1172.5" cy="272.5" r="2.5" fill="#F3F1EF"/>
<circle cx="1217.5" cy="272.5" r="2.5" fill="#F3F1EF"/>
<circle cx="1262.5" cy="272.5" r="2.5" fill="#F3F1EF"/>
<circle cx="1307.5" cy="272.5" r="2.5" fill="#F3F1EF"/>
<circle cx="1352.5" cy="272.5" r="2.5" fill="#F3F1EF"/>
<circle cx="1397.5" cy="272.5" r="2.5" fill="#F3F1EF"/>
<circle cx="2.5" cy="317.5" r="2.5" fill="#F3F1EF"/>
<circle cx="47.5" cy="317.5" r="2.5" fill="#F3F1EF"/>
<circle cx="92.5" cy="317.5" r="2.5" fill="#F3F1EF"/>
<circle cx="137.5" cy="317.5" r="2.5" fill="#F3F1EF"/>
<circle cx="182.5" cy="317.5" r="2.5" fill="#F3F1EF"/>
<circle cx="227.5" cy="317.5" r="2.5" fill="#F3F1EF"/>
<circle cx="272.5" cy="317.5" r="2.5" fill="#F3F1EF"/>
<circle cx="317.5" cy="317.5" r="2.5" fill="#F3F1EF"/>
<circle cx="362.5" cy="317.5" r="2.5" fill="#F3F1EF"/>
<circle cx="407.5" cy="317.5" r="2.5" fill="#F3F1EF"/>
<circle cx="452.5" cy="317.5" r="2.5" fill="#F3F1EF"/>
<circle cx="497.5" cy="317.5" r="2.5" fill="#F3F1EF"/>
<circle cx="542.5" cy="317.5" r="2.5" fill="#F3F1EF"/>
<circle cx="587.5" cy="317.5" r="2.5" fill="#F3F1EF"/>
<circle cx="632.5" cy="317.5" r="2.5" fill="#F3F1EF"/>
<circle cx="677.5" cy="317.5" r="2.5" fill="#F3F1EF"/>
<circle cx="722.5" cy="317.5" r="2.5" fill="#F3F1EF"/>
<circle cx="767.5" cy="317.5" r="2.5" fill="#F3F1EF"/>
<circle cx="812.5" cy="317.5" r="2.5" fill="#F3F1EF"/>
<circle cx="857.5" cy="317.5" r="2.5" fill="#F3F1EF"/>
<circle cx="902.5" cy="317.5" r="2.5" fill="#F3F1EF"/>
<circle cx="947.5" cy="317.5" r="2.5" fill="#F3F1EF"/>
<circle cx="992.5" cy="317.5" r="2.5" fill="#F3F1EF"/>
<circle cx="1037.5" cy="317.5" r="2.5" fill="#F3F1EF"/>
<circle cx="1082.5" cy="317.5" r="2.5" fill="#F3F1EF"/>
<circle cx="1127.5" cy="317.5" r="2.5" fill="#F3F1EF"/>
<circle cx="1172.5" cy="317.5" r="2.5" fill="#F3F1EF"/>
<circle cx="1217.5" cy="317.5" r="2.5" fill="#F3F1EF"/>
<circle cx="1262.5" cy="317.5" r="2.5" fill="#F3F1EF"/>
<circle cx="1307.5" cy="317.5" r="2.5" fill="#F3F1EF"/>
<circle cx="1352.5" cy="317.5" r="2.5" fill="#F3F1EF"/>
<circle cx="1397.5" cy="317.5" r="2.5" fill="#F3F1EF"/>
</g>
<defs>
<clipPath id="clip0_1294_2175">
<rect width="1440" height="355" fill="white"/>
</clipPath>
</defs>
</svg>
