<svg width="655" height="31" viewBox="0 0 655 31" fill="none" xmlns="http://www.w3.org/2000/svg">
<path opacity="0.3" d="M654.653 30.1962L601.43 26.7786L574.81 25.1712C565.935 24.6604 557.057 24.1647 548.178 23.699C530.421 22.7676 512.654 21.9714 494.878 21.3442C477.103 20.7358 459.313 20.3077 441.53 20.1237C405.965 19.6955 370.4 19.8195 334.838 20.3453C317.056 20.6157 299.28 20.9837 281.502 21.4194L268.422 21.7611L320.774 11.73L333.876 9.21748L340.427 7.96311L343.702 7.33593L345.34 7.02422L346.159 6.86648C346.232 6.85521 346.627 6.79513 347.066 6.48717C347.542 6.14165 347.833 5.57456 347.885 5.06756C347.948 4.5568 347.837 4.04228 347.509 3.57284C347.188 3.10339 346.59 2.78792 346.118 2.74285L339.305 2.46118L332.636 2.2058C328.192 2.0368 323.747 1.9016 319.298 1.7664C283.729 0.752394 248.131 0.650993 212.558 1.65373C176.982 2.63394 141.446 4.77087 105.992 7.84669L99.3449 8.4288L92.7018 9.0635C88.2718 9.47661 83.8492 9.94981 79.4229 10.3967C75.0003 10.8474 70.5777 11.3506 66.1551 11.8238C61.7362 12.3309 57.3136 12.8228 52.8983 13.3636C44.0679 14.4528 35.2411 15.5682 26.4291 16.785C22.0213 17.3708 17.6171 18.0055 13.2129 18.629C8.8051 19.2299 4.40831 19.9284 0.125878 21.4156C0.0557946 21.4419 0.00415457 21.5095 0.000465991 21.5884C-0.00691116 21.6935 0.0742375 21.7837 0.177518 21.7874C4.69971 22.0578 9.10387 21.4795 13.5117 20.9086C17.9159 20.3528 22.3237 19.7894 26.7353 19.2712C35.5547 18.1933 44.3851 17.2169 53.2192 16.2705L66.4686 14.8846C70.8912 14.4528 75.3064 13.9946 79.729 13.589C84.1516 13.1834 88.5743 12.7552 92.9969 12.3834L99.6326 11.8051L106.272 11.2492C123.974 9.78457 141.693 8.57152 159.428 7.60633C177.163 6.6449 194.909 5.94261 212.658 5.4694C248.164 4.51924 283.693 4.47793 319.199 5.4356C323.526 5.55578 327.852 5.67972 332.175 5.8337L320.099 8.12836L267.677 18.0844C263.306 18.9144 258.942 19.7744 254.582 20.6344L251.307 21.2729L249.669 21.5884L248.85 21.7461L248.441 21.825C248.426 21.8513 248.352 21.7761 247.725 22.0653C247.231 22.3245 246.829 22.8803 246.722 23.4061C246.608 23.9318 246.678 24.4426 246.94 24.9196C247.19 25.3965 247.736 25.8059 248.26 25.9073C248.928 26.0049 248.806 25.9373 248.906 25.9523L249.112 25.9486L249.946 25.9261L251.613 25.8772L254.94 25.7833L268.263 25.4228L281.586 25.0961C299.351 24.6792 317.118 24.3863 334.886 24.1872C370.422 23.7741 405.962 23.7478 441.497 23.9318C477.026 24.0633 512.539 25.0773 548.057 26.4594L574.695 27.5485L601.331 28.6977L627.973 29.8431L641.293 30.4177L654.616 30.9473C654.815 30.9548 654.985 30.7971 654.999 30.5942C655.01 30.3877 654.856 30.2112 654.653 30.1962ZM345.506 3.30243C345.576 3.28741 345.583 3.29117 345.506 3.30243V3.30243Z" fill="#00EC8E"/>
</svg>
