<svg width="142" height="121" viewBox="0 0 142 121" fill="none" xmlns="http://www.w3.org/2000/svg">
<path d="M54.9512 6.2146C53.7217 6.50049 53.048 7.82675 53.5435 8.98606L58.9808 26.3662C59.566 27.7417 61.0445 28.5083 62.5072 28.1951L70.3451 26.5181C70.5868 26.4662 70.8393 26.5321 71.0255 26.6948L75.2527 30.4153L76.1802 25.6219C76.2501 25.3274 76.4824 25.1008 76.777 25.0381L83.7324 23.9075C85.9226 23.4402 87.5871 18.6005 86.7369 16.5296" fill="#DAFAEA"/>
<path d="M71.4424 90.7139C74.0866 88.8365 77.0355 87.5788 80.0652 86.4822C83.349 85.2939 86.6874 84.2351 89.8904 82.8561C91.4658 82.1782 92.8801 81.0106 94.1901 79.8641C95.214 78.9697 95.6432 77.6936 95.5361 76.23" fill="#46E696"/>
<path d="M141.655 113.741C141.225 108.017 137.238 99.3753 132.533 96.3518C129.045 94.11 126.228 96.6172 122.579 94.6282C120.346 93.4111 118.087 92.2326 116.329 90.339C114.889 88.7899 114.116 87.0735 114.661 84.8515C115.175 82.7642 115.418 80.6121 115.86 78.5074C115.963 78.0186 116.299 77.473 116.693 77.1637C124.853 70.7224 130.257 62.5852 131.494 52.157C132.522 43.4871 127.935 31.9645 120.31 27.0259L93.8447 81.5179C94.075 82.1433 93.725 83.0037 92.855 82.9584C92.7389 82.9522 92.6345 82.9293 92.5383 82.8966L53.0549 98.0296C52.9421 98.6548 55.8712 104.865 55.7584 105.489C84.3005 110.593 112.844 115.696 141.386 120.798C141.491 118.444 141.828 116.074 141.653 113.74L141.655 113.741Z" fill="#46E696"/>
<path d="M136.582 112.964C108.739 107.987 80.8987 103.008 53.0564 98.0302C53.1674 97.4203 53.2765 96.8113 53.3855 96.2022C53.5303 95.7866 53.6927 95.3755 53.8176 94.9545C55.3846 89.646 58.5 85.6635 63.6832 83.447C66.5924 82.2042 69.6647 81.6145 72.7795 81.1962C76.1554 80.7418 79.5577 80.4237 82.8952 79.772C84.5394 79.4502 86.1276 78.6317 87.6149 77.8089C88.7764 77.167 89.4485 76.0402 89.6509 74.6227C89.9712 72.3743 90.4652 70.1519 90.8125 67.9053C90.8826 67.4555 90.7279 66.9078 90.5129 66.4897C89.6797 64.8693 88.6468 63.342 87.9289 61.6756C84.4573 53.6324 83.2154 45.3484 85.9495 36.8375C91.1678 20.5993 107.535 18.5616 118.07 25.3809C125.509 30.1967 127.933 37.5542 126.931 46.0102C125.723 56.1818 120.453 64.1189 112.491 70.4019C112.108 70.7055 111.779 71.2351 111.679 71.7131C111.246 73.7681 111.008 75.8667 110.509 77.901C109.976 80.0667 110.732 81.7417 112.136 83.2526C113.851 85.1013 116.054 86.2492 118.232 87.4366C121.791 89.378 125.454 91.1654 128.858 93.3523C133.447 96.3003 136.421 100.497 136.842 106.081C137.014 108.356 136.683 110.669 136.58 112.964H136.582Z" fill="#DAFAEA"/>
<path d="M71.6933 23.3458L75.805 26.9633L76.8278 22.6265C76.8948 22.3408 77.1216 22.1193 77.4081 22.058L84.0529 20.6337C86.1836 20.1761 87.3829 17.9063 86.5551 15.8927L81.2582 2.98135C80.6072 1.39624 78.9023 0.517467 77.2334 0.906279L55.2524 6.0279C54.0574 6.30614 53.4009 7.59598 53.8829 8.72397L59.978 23.0265C60.5488 24.3646 61.9858 25.1086 63.4082 24.806L71.0326 23.1742C71.2682 23.1233 71.5142 23.1882 71.6933 23.3458Z" fill="#46E696"/>
<path d="M32.0597 67.5165C35.1329 68.2001 33.8363 73.2444 32.4247 76.9102C35.0288 76.0148 37.6235 75.1 40.2265 74.2488C42.3382 73.5573 44.4531 72.8716 46.5662 72.1881C45.7705 71.5749 45.1425 70.7896 44.7087 69.8028C43.261 69.4968 41.9402 68.3815 41.2344 67.0152C39.7479 64.131 41.5676 60.6086 42.9697 58.0227C44.768 54.7052 47.3472 51.8985 50.0501 49.2962C51.399 47.9986 52.7886 46.7448 54.1578 45.469C53.8668 44.9331 53.5757 44.3972 53.2792 43.8665C49.89 37.7881 46.8773 31.4913 42.7241 25.8602C40.2514 22.5091 37.5075 19.4161 33.9274 17.1932C27.5413 13.228 20.9941 13.3525 14.4338 16.6804C12.3851 17.7205 11.2561 19.6978 10.2452 21.704C10.0433 22.104 9.64017 20.0255 9.23682 20.2085C4.05916 22.5754 1.08942 29.0182 0.396933 34.6756C-0.160989 39.2599 0.52624 43.7446 1.73889 48.125C3.23508 53.5251 5.00106 58.8519 6.586 64.2291C7.17108 66.2109 6.23925 67.5519 6.54533 69.5895C6.77287 71.105 5.51893 71.9004 5.51965 73.6373C12.9457 75.5433 24.7233 70.312 32.0597 67.5165Z" fill="#DAFAEA"/>
<path d="M82.0991 77.7466C79.7318 74.3846 74.4228 75.2456 70.4573 74.7763C66.9248 74.3583 63.3388 74.3874 59.7751 74.2555C57.2795 74.1641 54.7796 74.1614 52.2837 74.0553C51.4706 74.0196 50.6576 73.8161 49.8571 73.6379C49.6563 73.5929 49.4608 73.5407 49.2673 73.4883C45.7794 74.6112 42.2927 75.7424 38.8125 76.8872C36.324 77.705 33.8451 78.5821 31.3575 79.4313C31.2235 79.7195 31.1027 79.972 31.0036 80.1769C29.8945 82.432 28.2997 84.2861 26.5501 86.0286C23.6677 88.8965 21.3223 87.0397 18.4874 89.9553C16.6829 91.8111 14.6874 98.6345 13.7897 101.09C12.8001 103.796 12.7402 106.531 13.4908 109.297C13.5737 109.601 13.5979 109.918 13.6489 110.231L14.1329 111.423C36.8324 102.254 59.4226 92.6819 82.1222 83.5124C81.4514 82.335 82.8779 78.8515 82.1015 77.7483L82.0991 77.7466Z" fill="#90F0C0"/>
<path d="M82.1 77.7475C60.2331 86.5827 38.3679 95.4158 16.5011 104.251C16.3461 103.867 16.1916 103.485 16.0346 103.101C15.9857 102.801 15.9612 102.495 15.8823 102.203C15.1585 99.5368 15.2179 96.9028 16.1689 94.2958C17.0332 91.9317 18.3585 89.8303 20.0967 88.0437C22.8271 85.2352 25.6848 82.551 28.4624 79.7876C30.1489 78.11 31.683 76.3228 32.7533 74.1517C33.9257 71.7688 33.3565 69.6522 32.0589 67.5157C24.9917 70.2086 17.8126 71.0883 10.6583 69.2514C10.6573 67.5774 10.8331 66.0593 10.6145 64.5991C10.3187 62.6375 9.79686 60.6957 9.23436 58.7879C7.70691 53.609 6.00627 48.4771 4.56549 43.2758C3.39581 39.0562 2.73549 34.737 3.277 30.3232C3.94439 24.8735 6.82204 21.0575 11.808 18.7784C12.1956 18.6021 12.5694 18.212 12.763 17.826C13.7374 15.8928 14.8255 13.9872 16.7987 12.9867C23.1139 9.7804 29.42 9.65941 35.5723 13.4801C39.0214 15.6215 41.6648 18.6008 44.046 21.8283C48.0455 27.2515 50.9473 33.3188 54.212 39.174C56.1733 42.6901 57.8714 46.4357 61.6281 48.6592C57.8036 55.1466 52.0664 59.2827 45.3844 62.1334C45.8741 65.4418 47.8694 67.1755 50.9122 67.8535C51.6844 68.0258 52.4647 68.222 53.2502 68.2559C55.6549 68.358 58.0626 68.3609 60.4671 68.4484C63.8998 68.5763 67.3551 68.5453 70.7591 68.9486C74.579 69.4018 77.8671 71.1224 80.1469 74.3601C80.8935 75.422 81.4533 76.6149 82.0979 77.7478L82.1 77.7475Z" fill="#46E696"/>
<path d="M82.3733 87.9546L84.9384 103.729L53.0576 98.0282L82.3733 87.9546Z" fill="#90F0C0"/>
<path d="M75.7575 8.98318L63.3814 10.2883C60.9778 10.5427 58.9944 10.0847 59.0151 9.26722C59.0356 8.44983 61.0532 7.59304 63.457 7.36586L75.8302 6.19758C77.9773 5.99533 79.6909 6.44896 79.6706 7.20337C79.6503 7.95787 77.9051 8.75772 75.7555 8.98345L75.7575 8.98318Z" fill="#90F0C0"/>
<path d="M75.9704 8.65826L63.9305 9.8206C61.5916 10.0456 59.6613 9.62932 59.6816 8.88751C59.7021 8.14767 61.6617 7.37374 64.0003 7.17193L76.0368 6.13178C78.1266 5.95147 79.794 6.36642 79.7767 7.04903C79.7598 7.73372 78.0606 8.45484 75.9701 8.65619L75.9704 8.65826Z" fill="#DAFAEA"/>
<path d="M78.2268 15.4571L65.8507 16.7622C63.4471 17.0166 61.4638 16.5586 61.4843 15.7412C61.5049 14.9237 63.5225 14.0669 65.9263 13.8397L78.2994 12.6715C80.4466 12.4692 82.1602 12.9229 82.1398 13.6773C82.1196 14.4317 80.3744 15.2317 78.2247 15.4574L78.2268 15.4571Z" fill="#90F0C0"/>
<path d="M78.3603 15.0008L66.3205 16.1631C63.9815 16.3882 62.0512 15.9718 62.0714 15.23C62.0921 14.4902 64.0516 13.7164 66.3902 13.5145L78.4268 12.4743C80.5166 12.294 82.1838 12.709 82.1666 13.3916C82.1497 14.0762 80.4505 14.7974 78.3601 14.9987L78.3603 15.0008Z" fill="#DAFAEA"/>
</svg>
