<svg width="61" height="60" viewBox="0 0 61 60" fill="none" xmlns="http://www.w3.org/2000/svg">
<g id="Frame" clip-path="url(#clip0_769_1190)">
<path id="Vector" d="M15.333 30C23.6173 30 30.333 23.2843 30.333 15C30.333 6.71573 23.6173 0 15.333 0C7.04874 0 0.333008 6.71573 0.333008 15C0.333008 23.2843 7.04874 30 15.333 30Z" fill="#46E696"/>
<path id="Vector_2" d="M15.333 60C23.6173 60 30.333 53.2843 30.333 45C30.333 36.7157 23.6173 30 15.333 30C7.04874 30 0.333008 36.7157 0.333008 45C0.333008 53.2843 7.04874 60 15.333 60Z" fill="#DAFAEA"/>
<path id="Vector_3" d="M45.333 30C53.6173 30 60.333 23.2843 60.333 15C60.333 6.71573 53.6173 0 45.333 0C37.0487 0 30.333 6.71573 30.333 15C30.333 23.2843 37.0487 30 45.333 30Z" fill="#DAFAEA"/>
<path id="Vector_4" d="M45.333 60C53.6173 60 60.333 53.2843 60.333 45C60.333 36.7157 53.6173 30 45.333 30C37.0487 30 30.333 36.7157 30.333 45C30.333 53.2843 37.0487 60 45.333 60Z" fill="#46E696"/>
</g>
<defs>
<clipPath id="clip0_769_1190">
<rect width="60" height="60" fill="white" transform="translate(0.333008)"/>
</clipPath>
</defs>
</svg>
