<svg width="251" height="349" viewBox="0 0 251 349" fill="none" xmlns="http://www.w3.org/2000/svg">
<rect width="251" height="349" fill="white"/>
<rect width="11.3333" height="49.7375" rx="5.66667" transform="matrix(1 0 0 -1 41 227.21)" fill="#46E696"/>
<rect width="11.3333" height="28.8251" rx="5.66667" transform="matrix(1 0 0 -1 63.6667 206.297)" fill="#46E696"/>
<rect x="86.333" y="84.0854" width="11.3333" height="93.3869" rx="5.66667" fill="#46E696"/>
<rect x="109" y="125.345" width="11.3333" height="52.1274" rx="5.66667" fill="#46E696"/>
<rect x="131.667" y="40" width="11.3333" height="137.472" rx="5.66667" fill="#102C24"/>
<rect x="154.333" y="91.9983" width="11.3333" height="85.4741" rx="5.66667" fill="#46E696"/>
<rect x="177" y="67.6948" width="11.3333" height="109.778" rx="5.66666" fill="#46E696"/>
<rect x="199.667" y="149.083" width="11.3333" height="28.389" rx="5.66666" fill="#46E696"/>
<path d="M47.8665 273.239C46.5938 273.239 45.4602 273.02 44.4659 272.582C43.4773 272.139 42.696 271.531 42.1222 270.759C41.554 269.98 41.2614 269.082 41.2443 268.065H44.9602C44.983 268.491 45.1222 268.866 45.3778 269.19C45.6392 269.509 45.9858 269.756 46.4176 269.932C46.8494 270.108 47.3352 270.196 47.875 270.196C48.4375 270.196 48.9347 270.097 49.3665 269.898C49.7983 269.699 50.1364 269.423 50.3807 269.071C50.625 268.719 50.7472 268.312 50.7472 267.852C50.7472 267.386 50.6165 266.974 50.3551 266.616C50.0994 266.253 49.7301 265.969 49.2472 265.764C48.7699 265.56 48.2017 265.457 47.5426 265.457H45.9148V262.747H47.5426C48.0994 262.747 48.5909 262.651 49.017 262.457C49.4489 262.264 49.7841 261.997 50.0227 261.656C50.2614 261.31 50.3807 260.906 50.3807 260.446C50.3807 260.009 50.2756 259.625 50.0653 259.295C49.8608 258.96 49.571 258.699 49.196 258.511C48.8267 258.324 48.3949 258.23 47.9006 258.23C47.4006 258.23 46.9432 258.321 46.5284 258.503C46.1136 258.679 45.7812 258.932 45.5312 259.261C45.2812 259.591 45.1477 259.977 45.1307 260.42H41.5938C41.6108 259.415 41.8977 258.528 42.4545 257.761C43.0114 256.994 43.7614 256.395 44.7045 255.963C45.6534 255.526 46.7244 255.307 47.9176 255.307C49.1222 255.307 50.1761 255.526 51.0795 255.963C51.983 256.401 52.6847 256.991 53.1847 257.736C53.6903 258.474 53.9403 259.304 53.9347 260.224C53.9403 261.202 53.6364 262.017 53.0227 262.67C52.4148 263.324 51.6222 263.739 50.6449 263.915V264.051C51.929 264.216 52.9063 264.662 53.5767 265.389C54.2528 266.111 54.5881 267.014 54.5824 268.099C54.5881 269.094 54.3011 269.977 53.7216 270.75C53.1477 271.523 52.3551 272.131 51.3438 272.574C50.3324 273.017 49.1733 273.239 47.8665 273.239ZM64.0788 273.384C62.6129 273.378 61.3516 273.017 60.2947 272.301C59.2436 271.585 58.4339 270.548 57.8658 269.19C57.3033 267.832 57.0249 266.199 57.0305 264.29C57.0305 262.386 57.3118 260.764 57.8743 259.423C58.4425 258.082 59.2521 257.062 60.3033 256.364C61.3601 255.659 62.6186 255.307 64.0788 255.307C65.5391 255.307 66.7947 255.659 67.8459 256.364C68.9027 257.068 69.7152 258.091 70.2834 259.432C70.8516 260.767 71.1328 262.386 71.1271 264.29C71.1271 266.205 70.843 267.841 70.2749 269.199C69.7124 270.557 68.9055 271.594 67.8544 272.31C66.8033 273.026 65.5447 273.384 64.0788 273.384ZM64.0788 270.324C65.0788 270.324 65.8771 269.821 66.4737 268.815C67.0703 267.81 67.3658 266.301 67.3601 264.29C67.3601 262.966 67.2237 261.864 66.951 260.983C66.6839 260.102 66.3033 259.44 65.8089 258.997C65.3203 258.554 64.7436 258.332 64.0788 258.332C63.0845 258.332 62.2891 258.83 61.6925 259.824C61.0959 260.818 60.7947 262.307 60.7891 264.29C60.7891 265.631 60.9226 266.75 61.1896 267.648C61.4624 268.54 61.8459 269.21 62.3402 269.659C62.8345 270.102 63.4141 270.324 64.0788 270.324ZM83.3125 269.727V268.807C83.3125 268.108 83.4602 267.466 83.7557 266.881C84.0568 266.29 84.4915 265.818 85.0597 265.466C85.6335 265.108 86.3324 264.929 87.1562 264.929C87.9915 264.929 88.6932 265.105 89.2614 265.457C89.8352 265.81 90.267 266.281 90.5568 266.872C90.8523 267.457 91 268.102 91 268.807V269.727C91 270.426 90.8523 271.071 90.5568 271.662C90.2614 272.247 89.8267 272.716 89.2528 273.068C88.679 273.426 87.9801 273.605 87.1562 273.605C86.321 273.605 85.6193 273.426 85.0511 273.068C84.483 272.716 84.0511 272.247 83.7557 271.662C83.4602 271.071 83.3125 270.426 83.3125 269.727ZM85.7926 268.807V269.727C85.7926 270.131 85.8892 270.511 86.0824 270.869C86.2813 271.227 86.6392 271.406 87.1562 271.406C87.6733 271.406 88.0256 271.23 88.2131 270.878C88.4063 270.526 88.5028 270.142 88.5028 269.727V268.807C88.5028 268.392 88.4119 268.006 88.2301 267.648C88.0483 267.29 87.6903 267.111 87.1562 267.111C86.6449 267.111 86.2898 267.29 86.0909 267.648C85.892 268.006 85.7926 268.392 85.7926 268.807ZM74.3551 259.739V258.818C74.3551 258.114 74.5057 257.469 74.8068 256.884C75.108 256.293 75.5426 255.821 76.1108 255.469C76.6847 255.116 77.3778 254.94 78.1903 254.94C79.0313 254.94 79.7358 255.116 80.304 255.469C80.8722 255.821 81.304 256.293 81.5994 256.884C81.8949 257.469 82.0426 258.114 82.0426 258.818V259.739C82.0426 260.443 81.892 261.088 81.5909 261.673C81.2955 262.259 80.8608 262.727 80.2869 263.08C79.7188 263.426 79.0199 263.599 78.1903 263.599C77.3608 263.599 76.6591 263.423 76.0852 263.071C75.517 262.713 75.0852 262.244 74.7898 261.665C74.5 261.08 74.3551 260.437 74.3551 259.739ZM76.8523 258.818V259.739C76.8523 260.153 76.9489 260.537 77.142 260.889C77.3409 261.241 77.6903 261.418 78.1903 261.418C78.7131 261.418 79.0682 261.241 79.2557 260.889C79.4489 260.537 79.5455 260.153 79.5455 259.739V258.818C79.5455 258.403 79.4545 258.017 79.2727 257.659C79.0909 257.301 78.7301 257.122 78.1903 257.122C77.6847 257.122 77.3352 257.304 77.142 257.668C76.9489 258.031 76.8523 258.415 76.8523 258.818ZM75.4801 273L87.4801 255.545H89.7131L77.7131 273H75.4801Z" fill="#102C24"/>
<path d="M41.566 290.818H43.0376L46.4978 299.27H46.6171L50.0773 290.818H51.5489V301H50.3955V293.264H50.2961L47.1143 301H46.0006L42.8188 293.264H42.7194V301H41.566V290.818ZM56.9642 301.159C56.2748 301.159 55.67 300.995 55.1496 300.667C54.6325 300.339 54.2282 299.88 53.9365 299.29C53.6482 298.7 53.504 298.01 53.504 297.222C53.504 296.426 53.6482 295.732 53.9365 295.138C54.2282 294.545 54.6325 294.085 55.1496 293.756C55.67 293.428 56.2748 293.264 56.9642 293.264C57.6536 293.264 58.2568 293.428 58.7739 293.756C59.2942 294.085 59.6986 294.545 59.9869 295.138C60.2786 295.732 60.4244 296.426 60.4244 297.222C60.4244 298.01 60.2786 298.7 59.9869 299.29C59.6986 299.88 59.2942 300.339 58.7739 300.667C58.2568 300.995 57.6536 301.159 56.9642 301.159ZM56.9642 300.105C57.4879 300.105 57.9188 299.971 58.2568 299.702C58.5949 299.434 58.8451 299.081 59.0075 298.643C59.17 298.206 59.2512 297.732 59.2512 297.222C59.2512 296.711 59.17 296.236 59.0075 295.795C58.8451 295.354 58.5949 294.998 58.2568 294.726C57.9188 294.454 57.4879 294.318 56.9642 294.318C56.4405 294.318 56.0097 294.454 55.6716 294.726C55.3335 294.998 55.0833 295.354 54.9209 295.795C54.7585 296.236 54.6773 296.711 54.6773 297.222C54.6773 297.732 54.7585 298.206 54.9209 298.643C55.0833 299.081 55.3335 299.434 55.6716 299.702C56.0097 299.971 56.4405 300.105 56.9642 300.105ZM62.2155 301V293.364H63.349V294.517H63.4285C63.5677 294.139 63.8196 293.833 64.1842 293.597C64.5488 293.362 64.9598 293.244 65.4172 293.244C65.5033 293.244 65.6111 293.246 65.7403 293.249C65.8696 293.253 65.9674 293.258 66.0336 293.264V294.457C65.9939 294.447 65.9027 294.433 65.7602 294.413C65.621 294.389 65.4735 294.378 65.3177 294.378C64.9465 294.378 64.6151 294.456 64.3234 294.612C64.0351 294.764 63.8064 294.976 63.6373 295.248C63.4716 295.516 63.3888 295.823 63.3888 296.168V301H62.2155ZM70.3937 301.159C69.6579 301.159 69.0232 300.997 68.4896 300.672C67.9593 300.344 67.55 299.886 67.2616 299.3C66.9766 298.71 66.8341 298.024 66.8341 297.241C66.8341 296.459 66.9766 295.77 67.2616 295.173C67.55 294.573 67.951 294.106 68.4648 293.771C68.9818 293.433 69.585 293.264 70.2744 293.264C70.6721 293.264 71.0649 293.33 71.4527 293.463C71.8405 293.596 72.1934 293.811 72.5116 294.109C72.8298 294.404 73.0834 294.795 73.2723 295.283C73.4612 295.77 73.5557 296.37 73.5557 297.082V297.58H67.6693V296.565H72.3625C72.3625 296.134 72.2763 295.75 72.104 295.412C71.9349 295.074 71.693 294.807 71.3781 294.612C71.0666 294.416 70.6987 294.318 70.2744 294.318C69.8071 294.318 69.4027 294.434 69.0613 294.666C68.7233 294.895 68.4631 295.193 68.2808 295.561C68.0985 295.929 68.0074 296.323 68.0074 296.744V297.42C68.0074 297.997 68.1068 298.486 68.3057 298.887C68.5078 299.285 68.7879 299.588 69.1459 299.797C69.5038 300.002 69.9198 300.105 70.3937 300.105C70.702 300.105 70.9804 300.062 71.229 299.976C71.4809 299.886 71.6979 299.754 71.8802 299.578C72.0625 299.399 72.2034 299.177 72.3028 298.912L73.4363 299.23C73.317 299.615 73.1165 299.953 72.8348 300.244C72.5531 300.533 72.205 300.758 71.7907 300.92C71.3765 301.08 70.9108 301.159 70.3937 301.159ZM79.278 301V293.364H80.4513V301H79.278ZM79.8746 292.091C79.6459 292.091 79.4487 292.013 79.2829 291.857C79.1205 291.701 79.0393 291.514 79.0393 291.295C79.0393 291.077 79.1205 290.889 79.2829 290.734C79.4487 290.578 79.6459 290.5 79.8746 290.5C80.1032 290.5 80.2988 290.578 80.4612 290.734C80.6269 290.889 80.7098 291.077 80.7098 291.295C80.7098 291.514 80.6269 291.701 80.4612 291.857C80.2988 292.013 80.1032 292.091 79.8746 292.091ZM83.7735 296.406V301H82.6002V293.364H83.7338V294.557H83.8332C84.0122 294.169 84.2839 293.857 84.6485 293.622C85.0131 293.384 85.4838 293.264 86.0605 293.264C86.5775 293.264 87.0299 293.37 87.4177 293.582C87.8055 293.791 88.1071 294.109 88.3225 294.537C88.538 294.961 88.6457 295.498 88.6457 296.148V301H87.4724V296.227C87.4724 295.627 87.3166 295.16 87.0051 294.825C86.6935 294.487 86.266 294.318 85.7224 294.318C85.3479 294.318 85.0131 294.399 84.7181 294.562C84.4265 294.724 84.1961 294.961 84.0271 295.273C83.858 295.584 83.7735 295.962 83.7735 296.406ZM93.892 301.159C93.176 301.159 92.5596 300.99 92.0425 300.652C91.5255 300.314 91.1278 299.848 90.8493 299.255C90.5709 298.662 90.4317 297.984 90.4317 297.222C90.4317 296.446 90.5742 295.762 90.8593 295.168C91.1476 294.572 91.5487 294.106 92.0624 293.771C92.5795 293.433 93.1827 293.264 93.8721 293.264C94.409 293.264 94.8929 293.364 95.3238 293.562C95.7546 293.761 96.1076 294.04 96.3827 294.398C96.6578 294.756 96.8285 295.173 96.8948 295.651H95.7215C95.632 295.303 95.4332 294.994 95.1249 294.726C94.82 294.454 94.409 294.318 93.892 294.318C93.4346 294.318 93.0335 294.437 92.6888 294.676C92.3474 294.911 92.0806 295.245 91.8884 295.675C91.6995 296.103 91.605 296.605 91.605 297.182C91.605 297.772 91.6978 298.286 91.8834 298.723C92.0724 299.161 92.3375 299.5 92.6789 299.742C93.0236 299.984 93.4279 300.105 93.892 300.105C94.1969 300.105 94.4736 300.052 94.7222 299.946C94.9708 299.84 95.1813 299.688 95.3536 299.489C95.526 299.29 95.6486 299.051 95.7215 298.773H96.8948C96.8285 299.223 96.6644 299.629 96.4026 299.991C96.1441 300.349 95.801 300.634 95.3735 300.846C94.9492 301.055 94.4554 301.159 93.892 301.159ZM101.712 301.159C101.023 301.159 100.418 300.995 99.8976 300.667C99.3806 300.339 98.9762 299.88 98.6846 299.29C98.3962 298.7 98.252 298.01 98.252 297.222C98.252 296.426 98.3962 295.732 98.6846 295.138C98.9762 294.545 99.3806 294.085 99.8976 293.756C100.418 293.428 101.023 293.264 101.712 293.264C102.402 293.264 103.005 293.428 103.522 293.756C104.042 294.085 104.447 294.545 104.735 295.138C105.027 295.732 105.172 296.426 105.172 297.222C105.172 298.01 105.027 298.7 104.735 299.29C104.447 299.88 104.042 300.339 103.522 300.667C103.005 300.995 102.402 301.159 101.712 301.159ZM101.712 300.105C102.236 300.105 102.667 299.971 103.005 299.702C103.343 299.434 103.593 299.081 103.756 298.643C103.918 298.206 103.999 297.732 103.999 297.222C103.999 296.711 103.918 296.236 103.756 295.795C103.593 295.354 103.343 294.998 103.005 294.726C102.667 294.454 102.236 294.318 101.712 294.318C101.189 294.318 100.758 294.454 100.42 294.726C100.082 294.998 99.8314 295.354 99.6689 295.795C99.5065 296.236 99.4253 296.711 99.4253 297.222C99.4253 297.732 99.5065 298.206 99.6689 298.643C99.8314 299.081 100.082 299.434 100.42 299.702C100.758 299.971 101.189 300.105 101.712 300.105ZM106.964 301V293.364H108.097V294.557H108.196C108.356 294.149 108.612 293.833 108.967 293.607C109.322 293.379 109.748 293.264 110.245 293.264C110.749 293.264 111.168 293.379 111.503 293.607C111.841 293.833 112.104 294.149 112.293 294.557H112.373C112.568 294.162 112.861 293.849 113.253 293.617C113.644 293.382 114.113 293.264 114.66 293.264C115.342 293.264 115.901 293.478 116.335 293.906C116.769 294.33 116.986 294.991 116.986 295.889V301H115.813V295.889C115.813 295.326 115.659 294.923 115.351 294.681C115.042 294.439 114.679 294.318 114.262 294.318C113.725 294.318 113.309 294.481 113.014 294.805C112.719 295.127 112.571 295.535 112.571 296.028V301H111.378V295.77C111.378 295.336 111.237 294.986 110.956 294.721C110.674 294.452 110.311 294.318 109.867 294.318C109.562 294.318 109.277 294.399 109.012 294.562C108.75 294.724 108.538 294.95 108.375 295.238C108.216 295.523 108.137 295.853 108.137 296.227V301H106.964ZM122.333 301.159C121.597 301.159 120.963 300.997 120.429 300.672C119.899 300.344 119.489 299.886 119.201 299.3C118.916 298.71 118.774 298.024 118.774 297.241C118.774 296.459 118.916 295.77 119.201 295.173C119.489 294.573 119.89 294.106 120.404 293.771C120.921 293.433 121.524 293.264 122.214 293.264C122.612 293.264 123.004 293.33 123.392 293.463C123.78 293.596 124.133 293.811 124.451 294.109C124.769 294.404 125.023 294.795 125.212 295.283C125.401 295.77 125.495 296.37 125.495 297.082V297.58H119.609V296.565H124.302C124.302 296.134 124.216 295.75 124.043 295.412C123.874 295.074 123.632 294.807 123.318 294.612C123.006 294.416 122.638 294.318 122.214 294.318C121.747 294.318 121.342 294.434 121.001 294.666C120.663 294.895 120.403 295.193 120.22 295.561C120.038 295.929 119.947 296.323 119.947 296.744V297.42C119.947 297.997 120.046 298.486 120.245 298.887C120.447 299.285 120.727 299.588 121.085 299.797C121.443 300.002 121.859 300.105 122.333 300.105C122.641 300.105 122.92 300.062 123.168 299.976C123.42 299.886 123.637 299.754 123.82 299.578C124.002 299.399 124.143 299.177 124.242 298.912L125.376 299.23C125.256 299.615 125.056 299.953 124.774 300.244C124.493 300.533 124.145 300.758 123.73 300.92C123.316 301.08 122.85 301.159 122.333 301.159ZM131.217 301V293.364H132.391V301H131.217ZM131.814 292.091C131.585 292.091 131.388 292.013 131.222 291.857C131.06 291.701 130.979 291.514 130.979 291.295C130.979 291.077 131.06 290.889 131.222 290.734C131.388 290.578 131.585 290.5 131.814 290.5C132.043 290.5 132.238 290.578 132.401 290.734C132.566 290.889 132.649 291.077 132.649 291.295C132.649 291.514 132.566 291.701 132.401 291.857C132.238 292.013 132.043 292.091 131.814 292.091ZM135.713 296.406V301H134.54V293.364H135.673V294.557H135.773C135.952 294.169 136.223 293.857 136.588 293.622C136.953 293.384 137.423 293.264 138 293.264C138.517 293.264 138.969 293.37 139.357 293.582C139.745 293.791 140.047 294.109 140.262 294.537C140.477 294.961 140.585 295.498 140.585 296.148V301H139.412V296.227C139.412 295.627 139.256 295.16 138.945 294.825C138.633 294.487 138.205 294.318 137.662 294.318C137.287 294.318 136.953 294.399 136.658 294.562C136.366 294.724 136.136 294.961 135.967 295.273C135.797 295.584 135.713 295.962 135.713 296.406ZM150.723 290.818H151.956V298.097C151.956 298.746 151.837 299.298 151.598 299.752C151.36 300.206 151.023 300.551 150.589 300.786C150.155 301.022 149.643 301.139 149.053 301.139C148.496 301.139 148.001 301.038 147.566 300.836C147.132 300.63 146.791 300.339 146.542 299.961C146.294 299.583 146.169 299.134 146.169 298.614H147.383C147.383 298.902 147.454 299.154 147.596 299.369C147.742 299.581 147.941 299.747 148.193 299.866C148.445 299.986 148.732 300.045 149.053 300.045C149.408 300.045 149.709 299.971 149.958 299.822C150.206 299.673 150.395 299.454 150.525 299.165C150.657 298.874 150.723 298.518 150.723 298.097V290.818ZM159.081 297.878V293.364H160.254V301H159.081V299.707H159.001C158.822 300.095 158.544 300.425 158.166 300.697C157.788 300.965 157.311 301.099 156.734 301.099C156.257 301.099 155.833 300.995 155.461 300.786C155.09 300.574 154.799 300.256 154.586 299.832C154.374 299.404 154.268 298.866 154.268 298.216V293.364H155.441V298.136C155.441 298.693 155.597 299.137 155.909 299.469C156.224 299.8 156.625 299.966 157.112 299.966C157.404 299.966 157.7 299.891 158.002 299.742C158.307 299.593 158.562 299.364 158.767 299.056C158.976 298.748 159.081 298.355 159.081 297.878ZM163.576 296.406V301H162.403V293.364H163.536V294.557H163.636C163.815 294.169 164.087 293.857 164.451 293.622C164.816 293.384 165.286 293.264 165.863 293.264C166.38 293.264 166.833 293.37 167.22 293.582C167.608 293.791 167.91 294.109 168.125 294.537C168.341 294.961 168.448 295.498 168.448 296.148V301H167.275V296.227C167.275 295.627 167.119 295.16 166.808 294.825C166.496 294.487 166.069 294.318 165.525 294.318C165.151 294.318 164.816 294.399 164.521 294.562C164.229 294.724 163.999 294.961 163.83 295.273C163.661 295.584 163.576 295.962 163.576 296.406ZM173.794 301.159C173.058 301.159 172.424 300.997 171.89 300.672C171.36 300.344 170.95 299.886 170.662 299.3C170.377 298.71 170.234 298.024 170.234 297.241C170.234 296.459 170.377 295.77 170.662 295.173C170.95 294.573 171.351 294.106 171.865 293.771C172.382 293.433 172.985 293.264 173.675 293.264C174.073 293.264 174.465 293.33 174.853 293.463C175.241 293.596 175.594 293.811 175.912 294.109C176.23 294.404 176.484 294.795 176.673 295.283C176.862 295.77 176.956 296.37 176.956 297.082V297.58H171.07V296.565H175.763C175.763 296.134 175.677 295.75 175.504 295.412C175.335 295.074 175.093 294.807 174.778 294.612C174.467 294.416 174.099 294.318 173.675 294.318C173.207 294.318 172.803 294.434 172.462 294.666C172.124 294.895 171.863 295.193 171.681 295.561C171.499 295.929 171.408 296.323 171.408 296.744V297.42C171.408 297.997 171.507 298.486 171.706 298.887C171.908 299.285 172.188 299.588 172.546 299.797C172.904 300.002 173.32 300.105 173.794 300.105C174.102 300.105 174.381 300.062 174.629 299.976C174.881 299.886 175.098 299.754 175.281 299.578C175.463 299.399 175.604 299.177 175.703 298.912L176.837 299.23C176.717 299.615 176.517 299.953 176.235 300.244C175.953 300.533 175.605 300.758 175.191 300.92C174.777 301.08 174.311 301.159 173.794 301.159Z" fill="black"/>
</svg>
