<svg width="95" height="120" viewBox="0 0 95 120" fill="none" xmlns="http://www.w3.org/2000/svg">
<g clip-path="url(#clip0_114_288)">
<path d="M50.5238 119.574C56.6957 119.574 61.6989 117.573 61.6989 115.104V108.399H50.5238H39.3486V115.104C39.3486 117.573 44.352 119.574 50.5238 119.574Z" fill="#46E696"/>
<path d="M50.5238 112.869C56.6956 112.869 61.6989 110.868 61.6989 108.399C61.6989 105.93 56.6956 103.929 50.5238 103.929C44.3519 103.929 39.3486 105.93 39.3486 108.399C39.3486 110.868 44.3519 112.869 50.5238 112.869Z" fill="#DAFAEA"/>
<path d="M57.2887 48.0528L32.7035 2.23486L37.1735 38.554L21.5283 44.7004L47.2312 92.1946L41.6436 55.3167L57.2887 48.0528Z" fill="#DAFAEA"/>
<path d="M41.6423 0L32.7021 2.23502L56.7287 48.0531L41.6423 55.8756L47.2299 91.636H56.7287L51.1412 54.7581L67.3451 48.0531L41.6423 0Z" fill="#46E696"/>
<path d="M79.4248 91.636L93.1702 77.8906" stroke="#46E696" stroke-width="2.92683" stroke-linecap="round"/>
<path d="M73.4014 88.4773L76.0927 78.7236" stroke="#46E696" stroke-width="2.92683" stroke-linecap="round"/>
<path d="M21.111 91.6359L1.95068 72.4756" stroke="#46E696" stroke-width="2.92683" stroke-linecap="round"/>
</g>
<defs>
<clipPath id="clip0_114_288">
<rect width="94.6342" height="120" fill="white"/>
</clipPath>
</defs>
</svg>
