<svg width="194" height="34" viewBox="0 0 194 34" fill="none" xmlns="http://www.w3.org/2000/svg">
<rect width="34" height="34" rx="6" fill="#46E696"/>
<circle cx="13.5" cy="13.5" r="7.5" fill="#102C24"/>
<circle cx="21" cy="22" r="7" fill="#B5F5D5"/>
<path d="M43.728 27V9.12H50.4C51.616 9.12 52.688 9.344 53.616 9.792C54.56 10.224 55.296 10.864 55.824 11.712C56.352 12.544 56.616 13.56 56.616 14.76C56.616 15.944 56.344 16.96 55.8 17.808C55.272 18.64 54.544 19.28 53.616 19.728C52.688 20.176 51.616 20.4 50.4 20.4H46.992V27H43.728ZM46.992 17.52H50.448C51.04 17.52 51.552 17.408 51.984 17.184C52.416 16.944 52.752 16.616 52.992 16.2C53.232 15.784 53.352 15.304 53.352 14.76C53.352 14.2 53.232 13.72 52.992 13.32C52.752 12.904 52.416 12.584 51.984 12.36C51.552 12.12 51.04 12 50.448 12H46.992V17.52ZM59.5065 27V13.944H62.4585V16.848L62.2185 16.416C62.5225 15.44 62.9945 14.76 63.6345 14.376C64.2905 13.992 65.0745 13.8 65.9865 13.8H66.7545V16.584H65.6265C64.7305 16.584 64.0105 16.864 63.4665 17.424C62.9225 17.968 62.6505 18.736 62.6505 19.728V27H59.5065ZM75.3471 27.288C74.0671 27.288 72.8991 26.992 71.8431 26.4C70.8031 25.808 69.9711 25 69.3471 23.976C68.7391 22.952 68.4351 21.784 68.4351 20.472C68.4351 19.16 68.7391 17.992 69.3471 16.968C69.9711 15.944 70.8031 15.136 71.8431 14.544C72.8831 13.952 74.0511 13.656 75.3471 13.656C76.6271 13.656 77.7871 13.952 78.8271 14.544C79.8671 15.136 80.6911 15.944 81.2991 16.968C81.9231 17.976 82.2351 19.144 82.2351 20.472C82.2351 21.784 81.9231 22.952 81.2991 23.976C80.6751 25 79.8431 25.808 78.8031 26.4C77.7631 26.992 76.6111 27.288 75.3471 27.288ZM75.3471 24.408C76.0511 24.408 76.6671 24.24 77.1951 23.904C77.7391 23.568 78.1631 23.104 78.4671 22.512C78.7871 21.904 78.9471 21.224 78.9471 20.472C78.9471 19.704 78.7871 19.032 78.4671 18.456C78.1631 17.864 77.7391 17.4 77.1951 17.064C76.6671 16.712 76.0511 16.536 75.3471 16.536C74.6271 16.536 73.9951 16.712 73.4511 17.064C72.9071 17.4 72.4751 17.864 72.1551 18.456C71.8511 19.032 71.6991 19.704 71.6991 20.472C71.6991 21.224 71.8511 21.904 72.1551 22.512C72.4751 23.104 72.9071 23.568 73.4511 23.904C73.9951 24.24 74.6271 24.408 75.3471 24.408ZM91.1713 27.288C89.9073 27.288 88.7793 26.992 87.7873 26.4C86.7953 25.792 86.0113 24.968 85.4353 23.928C84.8593 22.888 84.5713 21.736 84.5713 20.472C84.5713 19.192 84.8593 18.04 85.4353 17.016C86.0113 15.992 86.7953 15.176 87.7873 14.568C88.7953 13.96 89.9153 13.656 91.1473 13.656C92.1393 13.656 93.0193 13.856 93.7873 14.256C94.5713 14.64 95.1873 15.184 95.6353 15.888L95.1553 16.536V8.832H98.2993V27H95.3233V24.48L95.6593 25.104C95.2113 25.808 94.5873 26.352 93.7873 26.736C92.9873 27.104 92.1153 27.288 91.1713 27.288ZM91.5073 24.408C92.2273 24.408 92.8593 24.24 93.4033 23.904C93.9473 23.568 94.3713 23.104 94.6753 22.512C94.9953 21.92 95.1553 21.24 95.1553 20.472C95.1553 19.72 94.9953 19.048 94.6753 18.456C94.3713 17.848 93.9473 17.376 93.4033 17.04C92.8593 16.704 92.2273 16.536 91.5073 16.536C90.8033 16.536 90.1713 16.712 89.6113 17.064C89.0513 17.4 88.6113 17.864 88.2913 18.456C87.9873 19.032 87.8353 19.704 87.8353 20.472C87.8353 21.24 87.9873 21.92 88.2913 22.512C88.6113 23.104 89.0513 23.568 89.6113 23.904C90.1713 24.24 90.8033 24.408 91.5073 24.408ZM106.36 27.288C105.352 27.288 104.472 27.064 103.72 26.616C102.984 26.168 102.416 25.544 102.016 24.744C101.632 23.944 101.44 23.008 101.44 21.936V13.944H104.584V21.672C104.584 22.216 104.688 22.696 104.896 23.112C105.12 23.512 105.432 23.832 105.832 24.072C106.248 24.296 106.712 24.408 107.224 24.408C107.736 24.408 108.192 24.296 108.592 24.072C108.992 23.832 109.304 23.504 109.528 23.088C109.752 22.672 109.864 22.176 109.864 21.6V13.944H113.008V27H110.032V24.432L110.296 24.888C109.992 25.688 109.488 26.288 108.784 26.688C108.096 27.088 107.288 27.288 106.36 27.288ZM122.699 27.288C121.403 27.288 120.235 26.992 119.195 26.4C118.171 25.792 117.363 24.976 116.771 23.952C116.179 22.912 115.883 21.744 115.883 20.448C115.883 19.152 116.179 17.992 116.771 16.968C117.363 15.944 118.171 15.136 119.195 14.544C120.235 13.952 121.403 13.656 122.699 13.656C123.627 13.656 124.491 13.824 125.291 14.16C126.091 14.48 126.779 14.928 127.355 15.504C127.947 16.064 128.371 16.736 128.627 17.52L125.867 18.72C125.627 18.064 125.219 17.536 124.643 17.136C124.083 16.736 123.435 16.536 122.699 16.536C122.011 16.536 121.395 16.704 120.851 17.04C120.323 17.376 119.907 17.84 119.603 18.432C119.299 19.024 119.147 19.704 119.147 20.472C119.147 21.24 119.299 21.92 119.603 22.512C119.907 23.104 120.323 23.568 120.851 23.904C121.395 24.24 122.011 24.408 122.699 24.408C123.451 24.408 124.107 24.208 124.667 23.808C125.227 23.408 125.627 22.872 125.867 22.2L128.627 23.448C128.371 24.184 127.955 24.848 127.379 25.44C126.803 26.016 126.115 26.472 125.315 26.808C124.515 27.128 123.643 27.288 122.699 27.288ZM137.444 27.144C135.972 27.144 134.828 26.744 134.012 25.944C133.212 25.128 132.812 23.984 132.812 22.512V16.752H130.556V13.944H130.796C131.436 13.944 131.932 13.776 132.284 13.44C132.636 13.104 132.812 12.616 132.812 11.976V10.968H135.956V13.944H138.956V16.752H135.956V22.344C135.956 22.776 136.028 23.144 136.172 23.448C136.332 23.752 136.572 23.984 136.892 24.144C137.228 24.304 137.652 24.384 138.164 24.384C138.276 24.384 138.404 24.376 138.548 24.36C138.708 24.344 138.86 24.328 139.004 24.312V27C138.78 27.032 138.524 27.064 138.236 27.096C137.948 27.128 137.684 27.144 137.444 27.144ZM142.151 27V9.12H145.415V16.92H153.023V9.12H156.311V27H153.023V19.8H145.415V27H142.151ZM159.968 27V13.944H163.112V27H159.968ZM159.968 12.48V9.12H163.112V12.48H159.968ZM170.431 27L165.295 13.944H168.727L172.447 24.216H171.175L174.919 13.944H178.351L173.215 27H170.431ZM186.526 27.288C185.182 27.288 184.006 26.984 182.998 26.376C181.99 25.768 181.206 24.944 180.646 23.904C180.086 22.864 179.806 21.712 179.806 20.448C179.806 19.136 180.086 17.976 180.646 16.968C181.222 15.944 181.998 15.136 182.974 14.544C183.966 13.952 185.07 13.656 186.286 13.656C187.31 13.656 188.206 13.824 188.974 14.16C189.758 14.496 190.422 14.96 190.966 15.552C191.51 16.144 191.926 16.824 192.214 17.592C192.502 18.344 192.646 19.16 192.646 20.04C192.646 20.264 192.63 20.496 192.598 20.736C192.582 20.976 192.542 21.184 192.478 21.36H182.398V18.96H190.702L189.214 20.088C189.358 19.352 189.318 18.696 189.094 18.12C188.886 17.544 188.534 17.088 188.038 16.752C187.558 16.416 186.974 16.248 186.286 16.248C185.63 16.248 185.046 16.416 184.534 16.752C184.022 17.072 183.63 17.552 183.358 18.192C183.102 18.816 183.006 19.576 183.07 20.472C183.006 21.272 183.11 21.984 183.382 22.608C183.67 23.216 184.086 23.688 184.63 24.024C185.19 24.36 185.83 24.528 186.55 24.528C187.27 24.528 187.878 24.376 188.374 24.072C188.886 23.768 189.286 23.36 189.574 22.848L192.118 24.096C191.862 24.72 191.462 25.272 190.918 25.752C190.374 26.232 189.726 26.608 188.974 26.88C188.238 27.152 187.422 27.288 186.526 27.288Z" fill="#102C24"/>
</svg>
